<svg width="222" height="41" viewBox="0 0 222 41" fill="none" xmlns="http://www.w3.org/2000/svg">
<path d="M204.879 -57.3868L200.827 -53.4782L196.775 -49.5675L186.699 -45.144L180.16 -34.6392L169.955 -30.4415L160.596 -24.7857L150.451 -20.4797L141.099 -14.8018L129.618 -13.5885L125.848 -10.6452L122.971 -10.572L119.277 -8.8048L111.682 0.0702591L111.499 -0.0722351L111.181 -0.317093L111.69 1.44608L109.878 12.1827L110.273 22.9132L110.992 33.6458L113.6 44.3753L107.262 55.1229L114.488 65.8394L114.494 76.571L108.303 87.3166L115.061 98.0371L107.427 108.793L114.357 119.512L115.335 130.254L114.071 136.121L121.391 131.904L128.856 124.372L140.858 124.647L149.447 119.052L155.735 109.501L166.203 107.14L171.838 96.4636L184.493 97.8625L193.806 93.5033L200.037 83.8455L209.676 80.0391L214.828 72.3131L219.571 64.5921L220.967 54.868L215.489 45.1581L220.967 40L219.547 25.701L217.964 15.9819L220.128 6.25491L222 -3.47113L212.898 -13.1731L215.379 -22.9031L215.39 -32.6302L213.595 -42.3512L220.907 -52.0993L221.95 -64.2519L218.335 -64.8178L213.802 -63.7933L204.879 -57.3868Z" fill="#86BC06"/>
<path d="M114.357 119.512L107.427 108.793L115.061 98.0371L108.303 87.3166L114.494 76.571L114.488 65.8394L107.262 55.1229L113.6 44.3753L110.991 33.6457L110.273 22.9132L109.878 12.1826L111.69 1.44604L111.181 -0.317135L102.846 -6.7647L92.28 -10.4386L83.4129 -17.0587L75.4651 -25.2665L65.725 -30.3673L55.712 -34.9955L47.0095 -41.8947L34.7647 -42.6633L28.2469 -53.3578L14.5931 -51.6869L5.6247 -58.1465L4.84196 -59.1219L8.5118 -52.1054L7.06273 -42.3814L7.80935 -32.6593L9.27146 -22.9393L2.93728 -13.2022L0.076271 -3.47218L6.2258 6.2368L8.60011 15.9518L1.28652 25.6899L3.05 40.1822L5.5 44L0 54.87L7.09583 64.586L8.72956 72.1064L14.2429 78.9513L21.6237 86.7436L31.5544 90.1184L40.008 96.0512L49.2885 100.55L56.8129 108.088L67.6538 109.884L76.3583 115.386L85.423 120.269L91.9498 129.541L100.697 134.98L111.966 137.335L114.071 136.121L115.335 130.254L114.357 119.512Z" fill="#8FCC05"/>
</svg>
