<svg width="222" height="66" viewBox="0 0 222 66" fill="none" xmlns="http://www.w3.org/2000/svg">
<path d="M204.879 7.61317L200.827 11.5218L196.775 15.4325L186.699 19.856L180.16 30.3608L169.955 34.5585L160.596 40.2143L150.451 44.5203L141.099 50.1982L129.618 51.4115L125.848 54.3548L122.971 54.428L119.277 56.1952L111.682 65.0703L111.499 64.9278L111.181 64.6829L111.69 66.4461L109.878 77.1827L110.273 87.9132L110.992 98.6458L113.6 109.375L107.262 120.123L114.488 130.839L114.494 141.571L108.303 152.317L115.061 163.037L107.427 173.793L114.357 184.512L115.335 195.254L114.071 201.121L121.391 196.904L128.856 189.372L140.858 189.647L149.447 184.052L155.735 174.501L166.203 172.14L171.838 161.464L184.493 162.863L193.806 158.503L200.037 148.845L209.676 145.039L214.828 137.313L219.571 129.592L220.967 119.868L215.489 110.158L220.86 100.423L219.547 90.701L217.964 80.9819L220.128 71.2549L222 61.5289L212.898 51.8269L215.379 42.0969L215.39 32.3698L213.595 22.6488L220.907 12.9007L221.95 0.748143L218.335 0.182159L213.802 1.20675L204.879 7.61317Z" fill="#86BC06"/>
<path d="M114.357 184.512L107.427 173.793L115.061 163.037L108.303 152.317L114.494 141.571L114.488 130.839L107.262 120.123L113.6 109.375L110.991 98.6457L110.273 87.9132L109.878 77.1826L111.69 66.446L111.181 64.6829L102.846 58.2353L92.28 54.5614L83.4129 47.9413L75.4651 39.7335L65.725 34.6327L55.712 30.0045L47.0095 23.1053L34.7647 22.3367L28.2469 11.6422L14.5931 13.3131L5.6247 6.85347L4.84196 5.87805L8.5118 12.8946L7.06273 22.6186L7.80935 32.3407L9.27146 42.0607L2.93728 51.7978L0.076271 61.5278L6.2258 71.2368L8.60011 80.9518L1.28652 90.6899L2.69544 100.412L8.98746 110.126L0 119.87L7.09583 129.586L8.72956 137.106L14.2429 143.951L21.6237 151.744L31.5544 155.118L40.008 161.051L49.2885 165.55L56.8129 173.088L67.6538 174.884L76.3583 180.386L85.423 185.269L91.9498 194.541L100.697 199.98L111.966 202.335L114.071 201.121L115.335 195.254L114.357 184.512Z" fill="#8FCC05"/>
</svg>
