<svg width="222" height="101" viewBox="0 0 222 101" fill="none" xmlns="http://www.w3.org/2000/svg">
<path d="M204.879 -94.3868L200.827 -90.4782L196.775 -86.5675L186.699 -82.144L180.16 -71.6392L169.955 -67.4415L160.596 -61.7857L150.451 -57.4797L141.099 -51.8018L129.618 -50.5885L125.848 -47.6452L122.971 -47.572L119.277 -45.8048L111.682 -36.9297L111.499 -37.0722L111.181 -37.3171L111.69 -35.5539L109.878 -24.8173L110.273 -14.0868L110.992 -3.35423L113.6 7.37532L107.262 18.1229L114.488 28.8394L114.494 39.571L108.303 50.3166L115.061 61.0371L107.427 71.7928L114.357 82.5123L115.335 93.2539L114.071 99.1214L121.391 94.9037L128.856 87.3723L140.858 87.6473L149.447 82.0517L155.735 72.5013L166.203 70.14L171.838 59.4636L184.493 60.8625L193.806 56.5033L200.037 46.8455L209.676 43.0391L214.828 35.3131L219.571 27.5921L220.967 17.868L215.489 8.15807L220.967 0L219.547 -11.299L217.964 -21.0181L220.128 -30.7451L222 -40.4711L212.898 -50.1731L215.379 -59.9031L215.39 -69.6302L213.595 -79.3512L220.907 -89.0993L221.95 -101.252L218.335 -101.818L213.802 -100.793L204.879 -94.3868Z" fill="#86BC06"/>
<path d="M114.357 82.5123L107.427 71.7927L115.061 61.0371L108.303 50.3166L114.494 39.571L114.488 28.8394L107.262 18.1229L113.6 7.37529L110.991 -3.35426L110.273 -14.0868L109.878 -24.8174L111.69 -35.554L111.181 -37.3171L102.846 -43.7647L92.28 -47.4386L83.4129 -54.0587L75.4651 -62.2665L65.725 -67.3673L55.712 -71.9955L47.0095 -78.8947L34.7647 -79.6633L28.2469 -90.3578L14.5931 -88.6869L5.6247 -95.1465L4.84196 -96.1219L8.5118 -89.1054L7.06273 -79.3814L7.80935 -69.6593L9.27146 -59.9393L2.93728 -50.2022L0.076271 -40.4722L6.2258 -30.7632L8.60011 -21.0482L1.28652 -11.3101L3 0L8.98746 8.12592L0 17.87L7.09583 27.586L8.72956 35.1064L14.2429 41.9513L21.6237 49.7436L31.5544 53.1184L40.008 59.0512L49.2885 63.5499L56.8129 71.0883L67.6538 72.8836L76.3583 78.3858L85.423 83.2689L91.9498 92.5414L100.697 97.9804L111.966 100.335L114.071 99.1214L115.335 93.2539L114.357 82.5123Z" fill="#8FCC05"/>
</svg>
