<svg width="217" height="121" viewBox="0 0 217 121" fill="none" xmlns="http://www.w3.org/2000/svg">
<path d="M12.593 68.3131L26.2468 66.6422L32.7646 77.3367L45.0094 78.1054L53.7119 85.0045L63.7249 89.6327L73.465 94.7336L81.4128 102.941L90.2799 109.561L100.846 113.235L109.499 119.928L109.682 120.07L117.277 111.195L120.971 109.428L127.182 106.458L127.618 106.411L139.099 105.198L148.45 99.5203L158.596 95.2142L167.955 89.5585L178.159 85.3608L184.699 74.856L194.775 70.4325L198.827 66.5218L202.879 62.6131L211.802 56.2067L216.335 55.1821L206.634 53.6628L198 48.0411L188.747 43.4922L180.89 36.5258L170.426 34.0773L160.839 30.1114L155.682 18.4716L143.783 18.5028L137.895 8.11641L126.165 7.85449L118.365 0L108.975 1.44506L101.504 3.95384L91.6888 7.44004L80.7234 8.95033L73.8112 17.431L65.6517 23.7612L57.2754 29.722L45.5895 29.9839L36.1715 34.1565L29.5192 43.0968L20.1514 47.3537L9.61958 49.6247L0.839844 57.0497L2.84186 60.8781L3.6246 61.8535L12.593 68.3131Z" fill="#9CDD03"/>
</svg>
