<svg width="301" height="194" viewBox="0 0 301 194" fill="none" xmlns="http://www.w3.org/2000/svg">
<path d="M301 87.1682V107.031L151.396 193.971V174.109L301 87.1682Z" fill="#86BC06"/>
<path d="M151.396 174.109V193.971L0.816986 107.034V87.1716L151.396 174.109Z" fill="#8FCC05"/>
<path d="M301 87.1683L151.396 174.109L0.817017 87.1716L150.423 0.23291L301 87.1683Z" fill="#ABEB15"/>
<path d="M173.16 69.2181C171.586 69.2181 170.105 68.255 169.52 66.6958C168.767 64.6848 169.785 62.4446 171.794 61.6915C178.907 59.0229 180.557 51.6406 180.625 51.3287C181.071 49.2371 183.122 47.8858 185.216 48.3207C187.31 48.7534 188.661 50.7814 188.243 52.8773C188.147 53.3589 185.746 64.7611 174.524 68.9699C174.074 69.1396 173.614 69.2181 173.16 69.2181Z" fill="#D3B872"/>
<path d="M116.414 87.5317C116.115 87.5317 115.812 87.4978 115.511 87.4257C113.421 86.9272 112.131 84.8313 112.628 82.7439C114.845 73.4375 126.648 64.7506 127.986 63.7917C129.73 62.5401 132.159 62.9411 133.411 64.6848C134.66 66.4307 134.261 68.8575 132.518 70.1091C129.533 72.2559 121.503 79.0336 120.19 84.5428C119.766 86.3289 118.173 87.5317 116.414 87.5317Z" fill="#D3B872"/>
<path d="M153.724 145.836C153.302 145.836 152.872 145.766 152.447 145.618C150.419 144.914 149.348 142.697 150.054 140.671C153.688 130.221 164.948 125.355 165.426 125.151C167.405 124.315 169.683 125.24 170.521 127.217C171.357 129.19 170.436 131.466 168.466 132.306C168.319 132.37 159.874 136.099 157.396 143.225C156.839 144.829 155.335 145.836 153.724 145.836Z" fill="#F8DB8F"/>
<path d="M175.976 90.7901C175.316 90.7901 174.646 90.6225 174.033 90.2661C165.263 85.1876 162.949 74.9457 162.853 74.5129C162.397 72.4149 163.73 70.3445 165.828 69.8884C167.919 69.4323 169.985 70.7582 170.448 72.8456C170.484 73.0068 172.211 80.2279 177.928 83.5393C179.786 84.6148 180.42 86.9928 179.345 88.8511C178.624 90.0943 177.319 90.7901 175.976 90.7901V90.7901Z" fill="#F7BD69"/>
<path d="M72.2121 75.9915C71.5524 75.9915 70.8821 75.8239 70.269 75.4675C61.4993 70.389 59.1849 60.1471 59.0895 59.7144C58.6334 57.6163 59.9656 55.5459 62.0636 55.0898C64.1553 54.6337 66.2215 55.9596 66.6839 58.047C66.72 58.2082 68.4468 65.4293 74.1638 68.7407C76.0221 69.8162 76.6564 72.1943 75.5808 74.0526C74.8596 75.2957 73.555 75.9915 72.2121 75.9915V75.9915Z" fill="#F7BD69"/>
<path d="M144.888 93.1236C143.397 93.1236 141.977 92.2623 141.333 90.8134C139.008 85.5801 132.943 78.6135 130.8 76.3713C129.319 74.8184 129.377 72.3577 130.929 70.8749C132.482 69.392 134.943 69.4493 136.424 71.0043C136.776 71.3713 145.092 80.1303 148.437 87.6569C149.309 89.617 148.426 91.9144 146.464 92.7863C145.951 93.0154 145.414 93.1236 144.888 93.1236V93.1236Z" fill="#F7BD69"/>
<path d="M233.162 115.324C231.671 115.324 230.251 114.463 229.606 113.014C227.281 107.781 221.217 100.814 219.074 98.572C217.593 97.0191 217.651 94.5584 219.203 93.0755C220.756 91.5927 223.217 91.65 224.698 93.2049C225.05 93.5719 233.365 102.331 236.711 109.858C237.583 111.818 236.7 114.115 234.738 114.987C234.225 115.216 233.688 115.324 233.162 115.324V115.324Z" fill="#F7BD69"/>
<path d="M136.337 124.218C135 124.218 133.698 123.527 132.977 122.29C131.362 119.522 125.253 115.83 122.546 114.479C120.626 113.518 119.848 111.182 120.808 109.263C121.767 107.343 124.103 106.564 126.023 107.525C127.083 108.056 136.479 112.867 139.691 118.372C140.773 120.226 140.147 122.606 138.293 123.688C137.675 124.046 137.003 124.218 136.337 124.218V124.218Z" fill="#F7BD69"/>
<path d="M162.94 151.105C161.604 151.105 160.301 150.413 159.58 149.176C157.965 146.408 151.856 142.717 149.149 141.366C147.229 140.405 146.451 138.069 147.412 136.149C148.371 134.229 150.706 133.451 152.626 134.412C153.687 134.942 163.082 139.753 166.294 145.258C167.376 147.112 166.75 149.492 164.896 150.574C164.279 150.933 163.606 151.105 162.94 151.105V151.105Z" fill="#F7BD69"/>
<path d="M95.6976 88.5313C95.4706 88.5313 95.2415 88.5101 95.0102 88.4698C86.9555 87.0315 78.328 79.8677 77.3712 79.0553C75.7357 77.6658 75.5341 75.2135 76.9236 73.5758C78.311 71.9403 80.7654 71.7387 82.4009 73.1282C84.569 74.9611 91.3 79.9102 96.3764 80.816C98.4893 81.1936 99.8978 83.2131 99.5202 85.326C99.1851 87.2076 97.5453 88.5313 95.6976 88.5313Z" fill="#F8DB8F"/>
<path d="M49.6976 92.3267C49.4706 92.3267 49.2415 92.3055 49.0102 92.2652C40.9555 90.8269 32.328 83.6631 31.3712 82.8507C29.7357 81.4612 29.5341 79.0089 30.9236 77.3712C32.311 75.7357 34.7654 75.5341 36.4009 76.9236C38.569 78.7565 45.3 83.7056 50.3764 84.6114C52.4893 84.989 53.8978 87.0085 53.5202 89.1214C53.1851 91.003 51.5453 92.3267 49.6976 92.3267Z" fill="#F8DB8F"/>
<path d="M275.698 89.3267C275.471 89.3267 275.241 89.3055 275.01 89.2652C266.955 87.8269 258.328 80.6631 257.371 79.8507C255.736 78.4612 255.534 76.0089 256.924 74.3712C258.311 72.7357 260.765 72.5341 262.401 73.9236C264.569 75.7565 271.3 80.7056 276.376 81.6114C278.489 81.989 279.898 84.0085 279.52 86.1214C279.185 88.003 277.545 89.3267 275.698 89.3267Z" fill="#F8DB8F"/>
<path d="M176.799 62.0993C174.769 62.0993 173.061 60.5253 172.923 58.4697C172.321 49.4115 163.945 45.608 163.589 45.451C161.635 44.5855 160.734 42.3008 161.589 40.3406C162.441 38.3784 164.707 37.4726 166.674 38.3148C167.206 38.5417 179.756 44.0763 180.681 57.9542C180.823 60.0946 179.202 61.9487 177.062 62.0908C176.973 62.0951 176.886 62.0993 176.799 62.0993V62.0993Z" fill="#F8DB8F"/>
<path d="M223.533 63.0993C221.503 63.0993 219.795 61.5253 219.657 59.4697C219.055 50.4115 210.68 46.608 210.323 46.451C208.37 45.5855 207.468 43.3008 208.323 41.3406C209.176 39.3784 211.441 38.4726 213.408 39.3148C213.94 39.5417 226.49 45.0763 227.415 58.9542C227.557 61.0946 225.937 62.9487 223.796 63.0908C223.707 63.0951 223.62 63.0993 223.533 63.0993V63.0993Z" fill="#F8DB8F"/>
<path d="M212.918 131.985C212.072 131.985 211.221 131.707 210.508 131.136C208.448 129.488 200.374 120.231 197.95 117.433C196.543 115.81 196.719 113.355 198.342 111.949C199.963 110.545 202.419 110.719 203.824 112.341C208.531 117.772 214.284 124.183 215.366 125.069C217.023 126.423 217.29 128.871 215.945 130.534C215.175 131.487 214.051 131.985 212.918 131.985Z" fill="#F8DB8F"/>
<path d="M211.009 103.69C209.514 103.69 208.09 102.822 207.449 101.367C206.584 99.4028 207.477 97.1075 209.441 96.2441C217.199 92.8308 219.651 83.7897 219.675 83.7006C220.195 81.6174 222.307 80.3509 224.388 80.8728C226.472 81.3925 227.736 83.5033 227.216 85.5864C227.087 86.1062 223.903 98.3739 212.572 103.359C212.063 103.584 211.531 103.69 211.009 103.69Z" fill="#F8DB8F"/>
<path d="M122.774 74.537C120.628 74.537 118.886 72.7975 118.886 70.6507C118.886 63.3363 125.534 49.8275 126.294 48.3108C127.253 46.3909 129.588 45.6124 131.506 46.5734C133.426 47.5322 134.206 49.8678 133.245 51.7877C130.7 56.8853 126.659 66.5141 126.659 70.6507C126.661 72.7975 124.919 74.537 122.774 74.537Z" fill="#F8DB8F"/>
<path d="M181.888 48.3754C179.742 48.3754 178 46.6359 178 44.4891C178 37.1747 184.648 23.6659 185.408 22.1491C186.367 20.2293 188.702 19.4508 190.62 20.4118C192.54 21.3706 193.32 23.7062 192.359 25.626C189.814 30.7236 185.773 40.3524 185.773 44.4891C185.775 46.6359 184.033 48.3754 181.888 48.3754Z" fill="#F8DB8F"/>
<path d="M69.8884 117.375C67.7416 117.375 66 115.636 66 113.489C66 106.175 72.6483 92.6659 73.4078 91.1491C74.3666 89.2293 76.7022 88.4508 78.6199 89.4118C80.5397 90.3706 81.3204 92.7062 80.3594 94.626C77.8138 99.7236 73.7726 109.352 73.7726 113.489C73.7747 115.636 72.0331 117.375 69.8884 117.375Z" fill="#F8DB8F"/>
<path d="M153.097 113.018C152.993 113.018 152.889 113.014 152.785 113.005C137.089 111.766 132.178 106.355 131.353 105.281L137.516 100.542C137.516 100.542 137.486 100.498 137.418 100.421C137.452 100.462 141.052 104.28 153.398 105.256C155.539 105.426 157.136 107.297 156.966 109.437C156.805 111.474 155.104 113.018 153.097 113.018Z" fill="#F8DB8F"/>
<path d="M102.744 52.5966C102.64 52.5966 102.536 52.5923 102.432 52.5838C86.7361 51.345 81.8252 45.9334 81 44.86L87.1625 40.1209C87.1625 40.1209 87.1328 40.0764 87.0649 40C87.0989 40.0403 90.6988 43.8587 103.045 44.8346C105.186 45.0043 106.783 46.8753 106.613 49.0157C106.452 51.0522 104.751 52.5966 102.744 52.5966Z" fill="#F8DB8F"/>
<path d="M126.744 142.597C126.64 142.597 126.536 142.592 126.432 142.584C110.736 141.345 105.825 135.933 105 134.86L111.163 130.121C111.163 130.121 111.133 130.076 111.065 130C111.099 130.04 114.699 133.859 127.045 134.835C129.186 135.004 130.783 136.875 130.613 139.016C130.452 141.052 128.751 142.597 126.744 142.597Z" fill="#F8DB8F"/>
<path d="M161.063 135.952C159.875 135.952 158.704 135.411 157.942 134.384C156.659 132.664 157.017 130.229 158.74 128.945C166.099 123.468 170.019 113.296 170.057 113.194C170.819 111.187 173.063 110.178 175.072 110.939C177.077 111.701 178.089 113.945 177.327 115.952C177.136 116.455 172.543 128.364 163.379 135.184C162.683 135.702 161.869 135.952 161.063 135.952V135.952Z" fill="#F8DB8F"/>
<path d="M137.89 32.2667C136.702 32.2667 135.531 31.7257 134.77 30.699C133.486 28.9786 133.845 26.5433 135.567 25.2599C142.926 19.7825 146.847 9.61068 146.885 9.50886C147.646 7.50206 149.891 6.4923 151.9 7.25386C153.904 8.01543 154.916 10.2598 154.155 12.2666C153.964 12.7694 149.371 24.6786 140.207 31.4988C139.511 32.0164 138.696 32.2667 137.89 32.2667V32.2667Z" fill="#F8DB8F"/>
</svg>
