<svg width="301" height="194" viewBox="0 0 301 194" fill="none" xmlns="http://www.w3.org/2000/svg">
<path d="M301 87.1682V107.031L151.396 193.971V174.109L301 87.1682Z" fill="#86BC06"/>
<path d="M151.396 174.109V193.971L0.817017 107.034V87.1716L151.396 174.109Z" fill="#8FCC05"/>
<path d="M301 87.1683L151.396 174.109L0.817017 87.1716L150.423 0.23291L301 87.1683Z" fill="#9CDD03"/>
<path d="M252.295 81.8134C254.019 87.8246 250.187 92.8522 244.176 94.5759C238.164 96.2996 231.894 92.8239 230.17 86.8125C228.446 80.8013 232.412 75.6646 238.423 73.9409C244.435 72.2172 250.572 75.8021 252.295 81.8134Z" fill="#FB6D30"/>
<path d="M239.476 78.1551C239.466 78.1579 239.457 78.1604 239.447 78.1629C238.84 78.3201 238.221 77.9557 238.063 77.3496C238.049 77.2971 237.051 73.6167 234.557 72.6068C233.976 72.3713 233.695 71.7091 233.931 71.1273C234.166 70.5457 234.829 70.2651 235.41 70.5008C238.975 71.9445 240.211 76.582 240.262 76.7787C240.417 77.3762 240.066 77.986 239.476 78.1551V78.1551Z" fill="#5B9617"/>
<path d="M102.588 61.5193C101.287 67.6361 95.5435 70.2761 89.4267 68.976C83.3098 67.6758 79.4051 61.6631 80.7053 55.5461C82.0055 49.4294 87.9184 46.7556 94.0352 48.0558C100.152 49.356 103.888 55.4024 102.588 61.5193Z" fill="#FB6D30"/>
<path d="M92.9862 52.271C92.9764 52.2689 92.9666 52.2666 92.9568 52.2642C92.3471 52.118 91.9714 51.5056 92.1165 50.8962C92.129 50.8435 92.9753 47.1251 91.2481 45.063C90.8453 44.5821 90.9084 43.8656 91.3894 43.4625C91.8706 43.0596 92.5871 43.1228 92.9899 43.6039C95.46 46.5523 94.3739 51.2272 94.3267 51.4249C94.1825 52.0249 93.5864 52.3986 92.9862 52.271V52.271Z" fill="#5B9617"/>
</svg>
