<svg width="222" height="258" viewBox="0 0 222 258" fill="none" xmlns="http://www.w3.org/2000/svg">
<path d="M14.5931 68.3131L28.2469 66.6422L34.7647 77.3367L47.0096 78.1054L55.712 85.0045L65.7251 89.6327L75.4652 94.7336L83.413 102.941L92.28 109.561L102.846 113.235L111.499 119.928L111.682 120.07L119.277 111.195L122.971 109.428L129.182 106.458L129.618 106.411L141.099 105.198L150.451 99.5203L160.596 95.2142L169.955 89.5585L180.16 85.3608L186.699 74.856L196.775 70.4325L200.827 66.5218L204.879 62.6131L213.802 56.2067L218.335 55.1821L208.634 53.6628L200 48.0411L190.747 43.4922L182.89 36.5258L172.427 34.0773L162.839 30.1114L157.682 18.4716L145.783 18.5028L139.895 8.11641L128.166 7.85449L120.365 0L110.975 1.44506L103.504 3.95384L93.6889 7.44004L82.7236 8.95033L75.8114 17.431L67.6518 23.7612L59.2755 29.722L47.5896 29.9839L38.1716 34.1565L31.5194 43.0968L22.1516 47.3537L11.6197 49.6247L2.83997 57.0497L4.84198 60.8781L5.62472 61.8535L14.5931 68.3131Z" fill="#9CDD03"/>
<path d="M204.879 62.6132L200.827 66.5218L196.775 70.4325L186.699 74.856L180.16 85.3608L169.955 89.5585L160.596 95.2143L150.451 99.5203L141.099 105.198L129.618 106.411L125.848 109.355L122.971 109.428L119.277 111.195L111.682 120.07L111.499 119.928L111.181 119.683L111.69 121.446L109.878 132.183L110.273 142.913L110.992 153.646L113.6 164.375L107.262 175.123L114.488 185.839L114.494 196.571L108.303 207.317L115.061 218.037L107.427 228.793L114.357 239.512L115.335 250.254L114.071 256.121L121.391 251.904L128.856 244.372L140.858 244.647L149.447 239.052L155.735 229.501L166.203 227.14L171.838 216.464L184.493 217.863L193.806 213.503L200.037 203.845L209.676 200.039L214.828 192.313L219.571 184.592L220.967 174.868L215.489 165.158L220.86 155.423L219.547 145.701L217.964 135.982L220.128 126.255L222 116.529L212.898 106.827L215.379 97.0969L215.39 87.3698L213.595 77.6488L220.907 67.9007L221.95 55.7481L218.335 55.1822L213.802 56.2067L204.879 62.6132Z" fill="#86BC06"/>
<path d="M114.357 239.512L107.427 228.793L115.061 218.037L108.303 207.317L114.494 196.571L114.488 185.839L107.262 175.123L113.6 164.375L110.991 153.646L110.273 142.913L109.878 132.183L111.69 121.446L111.181 119.683L102.846 113.235L92.28 109.561L83.4129 102.941L75.4651 94.7335L65.725 89.6327L55.712 85.0045L47.0095 78.1053L34.7647 77.3367L28.2469 66.6422L14.5931 68.3131L5.6247 61.8535L4.84196 60.8781L8.5118 67.8946L7.06273 77.6186L7.80935 87.3407L9.27146 97.0607L2.93728 106.798L0.076271 116.528L6.2258 126.237L8.60011 135.952L1.28652 145.69L2.69544 155.412L8.98746 165.126L0 174.87L7.09583 184.586L8.72956 192.106L14.2429 198.951L21.6237 206.744L31.5544 210.118L40.008 216.051L49.2885 220.55L56.8129 228.088L67.6538 229.884L76.3583 235.386L85.423 240.269L91.9498 249.541L100.697 254.98L111.966 257.335L114.071 256.121L115.335 250.254L114.357 239.512Z" fill="#8FCC05"/>
</svg>
