<svg width="301" height="710" viewBox="0 0 301 710" fill="none" xmlns="http://www.w3.org/2000/svg">
<path d="M301 603.168V623.031L151.396 709.971V690.109L301 603.168Z" fill="#86BC06"/>
<path d="M151.396 690.109V709.971L0.817017 623.034V603.172L151.396 690.109Z" fill="#8FCC05"/>
<path d="M301 603.168L151.396 690.109L0.817017 603.172L150.423 516.233L301 603.168Z" fill="#9CDD03"/>
<path d="M173.16 585.218C171.586 585.218 170.105 584.255 169.52 582.696C168.767 580.685 169.785 578.445 171.794 577.692C178.907 575.023 180.557 567.641 180.625 567.329C181.071 565.237 183.122 563.886 185.216 564.321C187.31 564.754 188.661 566.782 188.243 568.877C188.147 569.359 185.746 580.761 174.524 584.97C174.074 585.14 173.614 585.218 173.16 585.218Z" fill="#D3B872"/>
<path d="M116.414 603.532C116.115 603.532 115.812 603.498 115.511 603.426C113.421 602.927 112.131 600.831 112.628 598.744C114.845 589.438 126.648 580.751 127.986 579.792C129.73 578.54 132.159 578.941 133.411 580.685C134.66 582.431 134.261 584.858 132.518 586.109C129.533 588.256 121.503 595.034 120.19 600.543C119.766 602.329 118.173 603.532 116.414 603.532Z" fill="#D3B872"/>
<path d="M153.724 661.836C153.302 661.836 152.872 661.766 152.447 661.618C150.419 660.914 149.348 658.697 150.054 656.671C153.688 646.221 164.948 641.355 165.426 641.151C167.405 640.315 169.683 641.24 170.521 643.217C171.357 645.19 170.436 647.466 168.466 648.306C168.319 648.37 159.874 652.099 157.396 659.225C156.839 660.829 155.335 661.836 153.724 661.836Z" fill="#F8DB8F"/>
<path d="M175.976 606.79C175.316 606.79 174.646 606.622 174.033 606.266C165.263 601.188 162.949 590.946 162.853 590.513C162.397 588.415 163.73 586.344 165.828 585.888C167.919 585.432 169.985 586.758 170.448 588.846C170.484 589.007 172.211 596.228 177.928 599.539C179.786 600.615 180.42 602.993 179.345 604.851C178.624 606.094 177.319 606.79 175.976 606.79V606.79Z" fill="#F7BD69"/>
<path d="M72.2121 591.991C71.5524 591.991 70.8821 591.824 70.269 591.468C61.4993 586.389 59.1849 576.147 59.0895 575.714C58.6334 573.616 59.9656 571.546 62.0636 571.09C64.1553 570.634 66.2215 571.96 66.6839 574.047C66.72 574.208 68.4468 581.429 74.1638 584.741C76.0221 585.816 76.6564 588.194 75.5808 590.053C74.8596 591.296 73.555 591.991 72.2121 591.991V591.991Z" fill="#F7BD69"/>
<path d="M144.888 609.124C143.397 609.124 141.977 608.262 141.333 606.813C139.008 601.58 132.943 594.614 130.8 592.371C129.319 590.818 129.377 588.358 130.929 586.875C132.482 585.392 134.943 585.449 136.424 587.004C136.776 587.371 145.092 596.13 148.437 603.657C149.309 605.617 148.426 607.914 146.464 608.786C145.951 609.015 145.414 609.124 144.888 609.124V609.124Z" fill="#F7BD69"/>
<path d="M233.162 631.324C231.671 631.324 230.251 630.463 229.606 629.014C227.281 623.781 221.217 616.814 219.074 614.572C217.593 613.019 217.651 610.558 219.203 609.076C220.756 607.593 223.217 607.65 224.698 609.205C225.05 609.572 233.365 618.331 236.711 625.858C237.583 627.818 236.7 630.115 234.738 630.987C234.225 631.216 233.688 631.324 233.162 631.324V631.324Z" fill="#F7BD69"/>
<path d="M136.337 640.218C135 640.218 133.698 639.527 132.977 638.29C131.362 635.522 125.253 631.83 122.546 630.479C120.626 629.518 119.848 627.182 120.808 625.263C121.767 623.343 124.103 622.564 126.023 623.525C127.083 624.056 136.479 628.867 139.691 634.372C140.773 636.226 140.147 638.606 138.293 639.688C137.675 640.046 137.003 640.218 136.337 640.218V640.218Z" fill="#F7BD69"/>
<path d="M162.94 667.105C161.604 667.105 160.301 666.413 159.58 665.176C157.965 662.408 151.856 658.717 149.149 657.366C147.229 656.405 146.451 654.069 147.412 652.149C148.371 650.229 150.706 649.451 152.626 650.412C153.687 650.942 163.082 655.753 166.294 661.258C167.376 663.112 166.75 665.492 164.896 666.574C164.279 666.933 163.606 667.105 162.94 667.105V667.105Z" fill="#F7BD69"/>
<path d="M95.6976 604.531C95.4706 604.531 95.2415 604.51 95.0102 604.47C86.9555 603.032 78.328 595.868 77.3712 595.055C75.7357 593.666 75.5341 591.213 76.9236 589.576C78.311 587.94 80.7654 587.739 82.4009 589.128C84.569 590.961 91.3 595.91 96.3764 596.816C98.4893 597.194 99.8978 599.213 99.5202 601.326C99.1851 603.208 97.5453 604.531 95.6976 604.531Z" fill="#F8DB8F"/>
<path d="M49.6976 608.327C49.4706 608.327 49.2415 608.306 49.0102 608.265C40.9555 606.827 32.328 599.663 31.3712 598.851C29.7357 597.461 29.5341 595.009 30.9236 593.371C32.311 591.736 34.7654 591.534 36.4009 592.924C38.569 594.756 45.3 599.706 50.3764 600.611C52.4893 600.989 53.8978 603.009 53.5202 605.121C53.1851 607.003 51.5453 608.327 49.6976 608.327Z" fill="#F8DB8F"/>
<path d="M275.698 605.327C275.471 605.327 275.241 605.306 275.01 605.265C266.955 603.827 258.328 596.663 257.371 595.851C255.736 594.461 255.534 592.009 256.924 590.371C258.311 588.736 260.765 588.534 262.401 589.924C264.569 591.756 271.3 596.706 276.376 597.611C278.489 597.989 279.898 600.009 279.52 602.121C279.185 604.003 277.545 605.327 275.698 605.327Z" fill="#F8DB8F"/>
<path d="M176.799 578.099C174.769 578.099 173.061 576.525 172.923 574.47C172.321 565.412 163.945 561.608 163.589 561.451C161.635 560.585 160.734 558.301 161.589 556.341C162.441 554.378 164.707 553.473 166.674 554.315C167.206 554.542 179.756 560.076 180.681 573.954C180.823 576.095 179.202 577.949 177.062 578.091C176.973 578.095 176.886 578.099 176.799 578.099V578.099Z" fill="#F8DB8F"/>
<path d="M223.533 579.099C221.503 579.099 219.795 577.525 219.657 575.47C219.055 566.412 210.68 562.608 210.323 562.451C208.37 561.585 207.468 559.301 208.323 557.341C209.176 555.378 211.441 554.473 213.408 555.315C213.94 555.542 226.49 561.076 227.415 574.954C227.557 577.095 225.937 578.949 223.796 579.091C223.707 579.095 223.62 579.099 223.533 579.099V579.099Z" fill="#F8DB8F"/>
<path d="M212.918 647.985C212.072 647.985 211.221 647.707 210.508 647.136C208.448 645.488 200.374 636.231 197.95 633.433C196.543 631.81 196.719 629.355 198.342 627.949C199.963 626.545 202.419 626.719 203.824 628.341C208.531 633.772 214.284 640.183 215.366 641.069C217.023 642.423 217.29 644.871 215.945 646.534C215.175 647.487 214.051 647.985 212.918 647.985Z" fill="#F8DB8F"/>
<path d="M211.009 619.69C209.514 619.69 208.09 618.823 207.449 617.367C206.584 615.403 207.477 613.108 209.441 612.244C217.199 608.831 219.651 599.79 219.675 599.701C220.195 597.618 222.307 596.351 224.388 596.873C226.472 597.393 227.736 599.503 227.216 601.587C227.087 602.106 223.903 614.374 212.572 619.359C212.063 619.584 211.531 619.69 211.009 619.69Z" fill="#F8DB8F"/>
<path d="M122.774 590.537C120.628 590.537 118.886 588.797 118.886 586.651C118.886 579.336 125.534 565.827 126.294 564.311C127.253 562.391 129.588 561.612 131.506 562.573C133.426 563.532 134.206 565.868 133.245 567.788C130.7 572.885 126.659 582.514 126.659 586.651C126.661 588.797 124.919 590.537 122.774 590.537Z" fill="#F8DB8F"/>
<path d="M181.888 564.375C179.742 564.375 178 562.636 178 560.489C178 553.175 184.648 539.666 185.408 538.149C186.367 536.229 188.702 535.451 190.62 536.412C192.54 537.371 193.32 539.706 192.359 541.626C189.814 546.724 185.773 556.352 185.773 560.489C185.775 562.636 184.033 564.375 181.888 564.375Z" fill="#F8DB8F"/>
<path d="M69.8884 633.375C67.7416 633.375 66 631.636 66 629.489C66 622.175 72.6483 608.666 73.4078 607.149C74.3666 605.229 76.7022 604.451 78.6199 605.412C80.5397 606.371 81.3204 608.706 80.3594 610.626C77.8138 615.724 73.7726 625.352 73.7726 629.489C73.7747 631.636 72.0331 633.375 69.8884 633.375Z" fill="#F8DB8F"/>
<path d="M153.097 629.018C152.993 629.018 152.889 629.014 152.785 629.005C137.089 627.766 132.178 622.355 131.353 621.282L137.516 616.542C137.516 616.542 137.486 616.498 137.418 616.422C137.452 616.462 141.052 620.28 153.398 621.256C155.539 621.426 157.136 623.297 156.966 625.437C156.805 627.474 155.104 629.018 153.097 629.018Z" fill="#F8DB8F"/>
<path d="M102.744 568.597C102.64 568.597 102.536 568.592 102.432 568.584C86.7361 567.345 81.8252 561.933 81 560.86L87.1625 556.121C87.1625 556.121 87.1328 556.076 87.0649 556C87.0989 556.04 90.6988 559.859 103.045 560.835C105.186 561.004 106.783 562.875 106.613 565.016C106.452 567.052 104.751 568.597 102.744 568.597Z" fill="#F8DB8F"/>
<path d="M126.744 658.597C126.64 658.597 126.536 658.592 126.432 658.584C110.736 657.345 105.825 651.933 105 650.86L111.163 646.121C111.163 646.121 111.133 646.076 111.065 646C111.099 646.04 114.699 649.859 127.045 650.835C129.186 651.004 130.783 652.875 130.613 655.016C130.452 657.052 128.751 658.597 126.744 658.597Z" fill="#F8DB8F"/>
<path d="M161.063 651.952C159.875 651.952 158.704 651.411 157.942 650.384C156.659 648.664 157.017 646.229 158.74 644.945C166.099 639.468 170.019 629.296 170.057 629.194C170.819 627.187 173.063 626.178 175.072 626.939C177.077 627.701 178.089 629.945 177.327 631.952C177.136 632.455 172.543 644.364 163.379 651.184C162.683 651.702 161.869 651.952 161.063 651.952V651.952Z" fill="#F8DB8F"/>
<path d="M137.89 548.267C136.702 548.267 135.531 547.726 134.77 546.699C133.486 544.979 133.845 542.543 135.567 541.26C142.926 535.783 146.847 525.611 146.885 525.509C147.646 523.502 149.891 522.492 151.9 523.254C153.904 524.015 154.916 526.26 154.155 528.267C153.964 528.769 149.371 540.679 140.207 547.499C139.511 548.016 138.696 548.267 137.89 548.267V548.267Z" fill="#F8DB8F"/>
<path d="M159.995 489.354C160.051 487.973 159.168 486.58 157.343 485.527C153.817 483.491 148.119 483.491 144.616 485.527C142.869 486.542 141.999 487.87 142 489.2C142 489.196 142 489.191 142 489.187V601.77C141.997 603.113 142.882 604.457 144.657 605.482C148.184 607.518 153.881 607.518 157.384 605.482C159.125 604.471 159.997 603.147 160 601.822V489.238C160 489.276 159.996 489.315 159.995 489.354Z" fill="#FFA834"/>
<path d="M152.089 15.1188L45.1292 78.6021V88.5491C41.9472 87.2953 38.606 86.4723 35.3965 86.5529C31.9641 86.6483 29.2573 89.5079 29.3528 92.9424C29.4482 96.3747 32.3332 99.073 35.7422 98.9861C38.2284 98.9139 41.7265 100.38 45.1292 102.34V105.335C41.6756 105.511 38.2157 106.037 35.2183 107.151C31.9981 108.348 30.3583 111.926 31.5526 115.146C32.4839 117.654 34.8598 119.202 37.3842 119.202C38.1033 119.202 38.8352 119.077 39.55 118.812C41.0626 118.25 43.0057 117.94 45.1292 117.802V121.498L37.0044 125.916C33.9858 127.558 32.8721 131.334 34.5119 134.351C35.6404 136.426 37.7745 137.601 39.9807 137.601C40.9841 137.601 42.0023 137.357 42.9463 136.844L45.1292 135.656V139.61L45.0061 139.546C41.9705 137.936 38.2072 139.09 36.5971 142.126C35.0146 145.108 36.1092 148.793 39.0303 150.446C37.1444 151.264 35.0613 152.007 32.8339 152.539C29.4906 153.335 27.4287 156.689 28.2242 160.03C28.903 162.885 31.455 164.809 34.2679 164.809C34.7452 164.809 35.2289 164.754 35.7125 164.637C39.1703 163.814 42.3439 162.628 45.1271 161.343V163.761C41.6629 166.699 37.5708 170.178 35.878 171.659C33.2942 173.92 33.0312 177.849 35.2925 180.435C36.5229 181.839 38.2454 182.558 39.9764 182.558C41.4296 182.558 42.889 182.051 44.0685 181.018C44.3528 180.77 44.7113 180.46 45.1271 180.102V185.842C41.3871 186.984 37.6493 188.006 36.4699 188.131C33.0969 188.203 30.3859 190.959 30.3859 194.347C30.3859 197.783 33.1712 200.566 36.6056 200.566C37.4414 200.566 38.623 200.393 40.004 200.106C38.256 201.226 36.6544 202.488 35.3731 203.899C33.0609 206.44 33.2497 210.373 35.791 212.684C36.9811 213.768 38.4788 214.3 39.9722 214.3C41.6629 214.3 43.3494 213.615 44.5755 212.264C44.7402 212.083 44.9254 211.902 45.1292 211.721V220.059C41.9472 218.805 38.606 217.982 35.3965 218.063C31.9641 218.158 29.2573 221.018 29.3528 224.452C29.4482 227.885 32.3332 230.583 35.7422 230.496C38.2284 230.424 41.7265 231.89 45.1292 233.85V236.845C41.6756 237.021 38.2157 237.547 35.2183 238.661C31.9981 239.857 30.3583 243.436 31.5526 246.656C32.4839 249.164 34.8598 250.712 37.3842 250.712C38.1033 250.712 38.8352 250.587 39.55 250.322C41.0626 249.76 43.0057 249.45 45.1292 249.312V253.008L37.0044 257.426C33.9858 259.068 32.8721 262.844 34.5119 265.861C35.6404 267.936 37.7745 269.111 39.9807 269.111C40.9841 269.111 42.0023 268.867 42.9463 268.353L45.1292 267.165V271.12L45.0061 271.056C41.9705 269.446 38.2072 270.6 36.5971 273.636C35.0146 276.618 36.1092 280.303 39.0303 281.955C37.1444 282.774 35.0613 283.517 32.8339 284.049C29.4906 284.845 27.4287 288.199 28.2242 291.54C28.903 294.395 31.455 296.319 34.2679 296.319C34.7452 296.319 35.2289 296.264 35.7125 296.147C39.1703 295.324 42.3439 294.138 45.1271 292.853V295.271C41.6629 298.209 37.5708 301.688 35.878 303.169C34.6374 304.255 33.9318 305.725 33.7838 307.246C31.1556 308.032 29.2729 310.504 29.3528 313.378C29.4482 316.81 32.3332 319.509 35.7422 319.422C36.1883 319.409 36.667 319.445 37.1718 319.525C36.8852 319.583 36.6483 319.622 36.4699 319.641C33.0969 319.713 30.3859 322.469 30.3859 325.857C30.3859 327.518 31.0365 329.026 32.0967 330.141C31.1218 331.717 30.8583 333.71 31.5526 335.582C32.0143 336.825 32.8311 337.833 33.845 338.533C33.497 340.557 34.1588 342.71 35.791 344.193C36.5548 344.889 37.4452 345.358 38.3799 345.604L37.0044 346.352C33.9858 347.994 32.8721 351.77 34.5119 354.787C35.6404 356.861 37.7745 358.036 39.9807 358.036C40.9841 358.036 42.0023 357.793 42.9463 357.279L45.1292 356.091V360.045L45.0061 359.982C41.9705 358.372 38.2072 359.526 36.5971 362.561C35.0146 365.544 36.1092 369.229 39.0303 370.881C37.1444 371.7 35.0613 372.442 32.8339 372.975C29.4906 373.77 27.4287 377.124 28.2242 380.465C28.903 383.321 31.455 385.245 34.2679 385.245C34.7452 385.245 35.2289 385.19 35.7125 385.073C39.1703 384.25 42.3439 383.064 45.1271 381.779V384.197C41.6629 387.135 37.5708 390.614 35.878 392.095C33.2942 394.356 33.0312 398.285 35.2925 400.871C36.5229 402.275 38.2454 402.994 39.9764 402.994C41.4296 402.994 42.889 402.487 44.0685 401.454C44.3528 401.206 44.7113 400.896 45.1271 400.538V406.278C41.3871 407.419 37.6493 408.442 36.4699 408.567C33.0969 408.639 30.3859 411.395 30.3859 414.782C30.3859 418.219 33.1712 421.002 36.6056 421.002C37.4414 421.002 38.623 420.828 40.004 420.542C38.256 421.662 36.6544 422.924 35.3731 424.335C33.0609 426.876 33.2497 430.809 35.791 433.119C36.9811 434.203 38.4788 434.736 39.9722 434.736C41.6629 434.736 43.3494 434.05 44.5755 432.699C46.1474 430.972 49.5882 429.256 53.1351 427.907L50.8712 428.331C49.0469 429.116 47.3604 430.077 45.9476 431.255C43.3086 433.452 42.9544 437.375 45.1521 440.014C46.3825 441.49 48.1517 442.252 49.9336 442.249C51.3379 442.249 52.7486 441.779 53.9111 440.809C56.1131 438.974 61.7664 437.922 66.7813 437.517L67.9353 438.183C67.1292 438.38 66.304 438.577 65.4406 438.766C62.0846 439.502 59.9633 442.82 60.6994 446.174C61.3379 449.08 63.9111 451.062 66.7685 451.062C67.2098 451.062 67.6574 451.015 68.1071 450.915C74.4011 449.534 79.4287 447.888 82.6701 446.689L87.1568 449.282C84.8721 450.512 82.6277 451.827 80.6485 453.168C77.8038 455.094 77.0592 458.961 78.9854 461.804C80.1882 463.58 82.1461 464.536 84.1402 464.536C85.3409 464.536 86.5543 464.188 87.6235 463.465C91.2212 461.028 96.0621 458.599 100.086 456.745L103.896 458.944L101.699 460.563C98.9323 462.599 98.3384 466.492 100.375 469.258C101.592 470.913 103.478 471.791 105.39 471.791C106.669 471.791 107.961 471.397 109.07 470.58L115.657 465.735L117.034 466.528L113.663 472.693C112.013 475.705 113.12 479.485 116.134 481.134C117.08 481.651 118.103 481.897 119.113 481.897C121.312 481.897 123.444 480.728 124.575 478.662L127.808 472.75L132.095 475.224C132.233 478.737 131.883 482.018 131.126 483.02C129.057 485.76 129.603 489.661 132.343 491.73C133.466 492.576 134.781 492.988 136.085 492.988C137.969 492.988 139.832 492.133 141.054 490.514C142.793 488.21 143.729 485.232 144.189 482.207L152.087 486.768L259.046 423.283V210.112L252.755 206.479L259.046 202.847V78.6021L152.089 15.1188Z" fill="#F7BD69"/>
<path d="M269.274 140.11L259.049 135.409V134.453C261.475 134.115 264.278 133.723 267.545 133.263C270.945 132.781 273.313 129.635 272.833 126.235C272.354 122.832 269.199 120.465 265.805 120.946C263.58 121.26 261.287 121.583 259.049 121.892V112.287L268.3 109.786C271.615 108.888 273.576 105.473 272.678 102.157C271.781 98.8418 268.363 96.8817 265.052 97.779L259.049 99.4018V96.5338C261.367 93.3984 265.092 89.1261 269.935 86.1456C272.861 84.3446 273.773 80.5155 271.972 77.5902C270.171 74.6649 266.342 73.7527 263.414 75.5516C261.866 76.5062 260.411 77.5499 259.049 78.636V78.6042L152.089 142.09V163.07L141.319 171.09C138.563 173.142 137.993 177.039 140.044 179.794C141.266 181.432 143.139 182.3 145.038 182.3C146.329 182.3 147.632 181.899 148.748 181.067L152.089 178.579V183.592C147.286 188.479 140.831 194.79 138.746 196.25C135.933 198.22 135.248 202.098 137.218 204.911C138.427 206.64 140.356 207.565 142.318 207.565C143.548 207.565 144.794 207.2 145.878 206.44C146.338 206.118 146.879 205.696 147.475 205.202C145.763 208.316 143.593 212.747 142.187 217.438C141.2 220.728 143.065 224.194 146.355 225.183C146.951 225.361 147.554 225.446 148.145 225.446C149.603 225.446 150.988 224.915 152.089 224.009V231.252C151.542 232.703 149.548 237.119 144.276 241.303C141.586 243.439 141.136 247.351 143.271 250.04C144.499 251.589 146.315 252.395 148.147 252.395C149.501 252.395 150.865 251.954 152.008 251.046C152.036 251.025 152.061 251.003 152.089 250.98V252.953L144.121 269.073C142.6 272.153 143.862 275.883 146.94 277.404C147.827 277.843 148.767 278.051 149.692 278.051C150.518 278.051 151.333 277.885 152.089 277.57V278.297L141.319 286.318C138.563 288.37 137.993 292.266 140.044 295.022C141.266 296.66 143.139 297.527 145.038 297.527C146.329 297.527 147.632 297.126 148.748 296.295L152.089 293.807V298.819C147.286 303.707 140.831 310.018 138.746 311.477C135.933 313.448 135.248 317.326 137.218 320.139C138.427 321.868 140.356 322.793 142.318 322.793C143.548 322.793 144.794 322.428 145.878 321.668C146.338 321.346 146.879 320.924 147.475 320.429C145.763 323.543 143.593 327.975 142.187 332.665C141.2 335.955 143.065 339.422 146.355 340.41C146.951 340.588 147.554 340.673 148.145 340.673C149.603 340.673 150.988 340.143 152.089 339.237V346.479C151.542 347.93 149.548 352.347 144.276 356.53C141.586 358.667 141.136 362.578 143.271 365.268C144.499 366.817 146.315 367.623 148.147 367.623C149.501 367.623 150.865 367.182 152.008 366.274C152.036 366.252 152.061 366.231 152.089 366.208V368.181L144.121 384.301C142.6 387.381 143.862 391.11 146.94 392.631C147.827 393.07 148.767 393.278 149.692 393.278C150.518 393.278 151.333 393.113 152.089 392.798V394.045L141.319 402.065C138.563 404.117 137.993 408.014 140.044 410.769C141.266 412.407 143.139 413.275 145.038 413.275C146.329 413.275 147.632 412.874 148.748 412.042L152.089 409.554V414.566C147.286 419.454 140.831 425.765 138.746 427.224C135.933 429.195 135.248 433.073 137.218 435.886C138.427 437.615 140.356 438.54 142.318 438.54C143.548 438.54 144.794 438.175 145.878 437.415C146.338 437.093 146.879 436.671 147.475 436.177C145.763 439.291 143.593 443.722 142.187 448.412C141.2 451.703 143.065 455.169 146.355 456.157C146.951 456.336 147.554 456.42 148.145 456.42C149.603 456.42 150.988 455.89 152.089 454.984V462.227C151.542 463.678 149.548 468.094 144.276 472.277C141.586 474.414 141.136 478.325 143.271 481.015C144.499 482.564 146.315 483.37 148.147 483.37C149.501 483.37 150.865 482.929 152.008 482.021C152.019 482.012 152.03 482.004 152.041 481.995C152.057 481.982 152.072 481.969 152.089 481.955V483.928L144.121 500.048C142.6 503.128 143.862 506.857 146.94 508.379C147.827 508.818 148.767 509.025 149.692 509.025C151.983 509.025 154.189 507.753 155.271 505.559L162.248 491.444L164.45 490.173C164.327 492.358 164.429 494.524 164.898 496.482C165.583 499.333 168.131 501.251 170.941 501.251C171.421 501.251 171.909 501.196 172.397 501.077C175.738 500.275 177.795 496.919 176.993 493.578C176.389 491.066 177.49 485.882 178.722 481.932L182.961 479.486C183.447 480.133 183.865 480.905 184.1 481.819C184.828 484.622 187.35 486.48 190.116 486.48C190.634 486.48 191.158 486.414 191.682 486.278C195.006 485.417 197.004 482.023 196.141 478.699C195.608 476.641 194.768 474.832 193.756 473.253L195.282 472.373C197.736 473.979 200.668 475.68 203.455 476.743C204.183 477.019 204.932 477.15 205.668 477.15C208.173 477.15 210.536 475.625 211.48 473.145C212.704 469.936 211.092 466.342 207.882 465.118C207.876 465.116 207.867 465.114 207.861 465.109L220.303 457.927L220.782 460.812C221.289 463.854 223.924 466.009 226.909 466.009C227.248 466.009 227.594 465.979 227.94 465.922C231.327 465.358 233.616 462.154 233.052 458.765L231.805 451.285L238.186 447.602C238.428 449.036 238.476 450.194 238.26 450.818C236.092 453.345 236.298 457.157 238.765 459.435C239.961 460.538 241.474 461.083 242.982 461.083C244.658 461.083 246.327 460.411 247.554 459.083C251.862 454.414 251.149 447.051 249.484 441.079L250.027 439.034L254.29 444.1C255.521 445.561 257.279 446.312 259.051 446.312C260.466 446.312 261.889 445.833 263.054 444.851C265.682 442.638 266.017 438.716 263.807 436.087L259.049 430.436V429.702L260.349 430.404C261.289 430.913 262.303 431.153 263.302 431.153C265.512 431.153 267.653 429.972 268.777 427.891C270.411 424.87 269.286 421.096 266.263 419.462L259.049 415.563V411.588L259.131 411.662C260.321 412.742 261.815 413.275 263.304 413.275C264.999 413.275 266.688 412.585 267.916 411.23C270.222 408.684 270.029 404.751 267.483 402.445L259.049 394.804V380.076L264.076 382.386C264.918 382.774 265.801 382.956 266.671 382.956C269.023 382.956 271.276 381.613 272.324 379.335C273.76 376.213 272.394 372.521 269.274 371.085L259.049 366.384V365.428C261.475 365.09 264.278 364.698 267.545 364.238C270.945 363.756 273.313 360.61 272.833 357.21C272.354 353.807 269.199 351.44 265.805 351.921C263.58 352.235 261.287 352.557 259.049 352.867V343.262L268.3 340.761C271.615 339.863 273.576 336.448 272.678 333.132C271.781 329.817 268.363 327.857 265.052 328.754L262.68 329.395C262.807 329.303 262.932 329.206 263.054 329.104C265.367 327.156 265.904 323.884 264.492 321.336C266.099 319.824 267.921 318.36 269.935 317.12C272.861 315.319 273.773 311.49 271.972 308.565C271.165 307.254 269.951 306.348 268.593 305.908C268.04 305.015 267.254 304.25 266.263 303.715L259.049 299.816V295.841L259.131 295.915C260.321 296.995 261.815 297.527 263.304 297.527C264.999 297.527 266.688 296.838 267.916 295.482C270.222 292.937 270.029 289.004 267.483 286.698L259.049 279.057V264.328L264.076 266.638C264.918 267.027 265.801 267.209 266.671 267.209C269.023 267.209 271.276 265.866 272.324 263.588C273.76 260.465 272.394 256.774 269.274 255.338L259.049 250.637V249.68C261.475 249.343 264.278 248.951 267.545 248.49C270.945 248.009 273.313 244.863 272.833 241.462C272.354 238.06 269.199 235.692 265.805 236.174C263.58 236.488 261.287 236.81 259.049 237.12V227.515L268.3 225.014C271.615 224.116 273.576 220.701 272.678 217.385C271.781 214.07 268.363 212.109 265.052 213.007L263.547 213.414C265.527 211.345 265.828 208.179 264.295 205.776C265.95 204.198 267.838 202.664 269.935 201.373C272.861 199.572 273.773 195.743 271.972 192.818C271.074 191.36 269.673 190.402 268.13 190.031C267.63 189.416 267.004 188.888 266.263 188.488L259.049 184.589V180.613L259.131 180.687C260.321 181.767 261.815 182.3 263.304 182.3C264.999 182.3 266.688 181.61 267.916 180.255C270.222 177.709 270.029 173.776 267.483 171.47L259.049 163.829V149.101L264.076 151.411C264.918 151.799 265.801 151.981 266.671 151.981C269.023 151.981 271.276 150.639 272.324 148.36C273.76 145.238 272.394 141.547 269.274 140.11Z" fill="#F8DB8F"/>
<path d="M266.119 69.6224C265.286 66.2898 261.911 64.2639 258.578 65.0976C253.601 66.3428 246.847 66.8647 242.097 67.0853L234.927 62.9444L241.41 59.5312C244.45 57.9338 245.617 54.1727 244.017 51.1328C242.418 48.0929 238.659 46.9241 235.617 48.5257L222.193 55.5919L216.648 52.3908L219.541 51.2898C222.753 50.0679 224.365 46.4765 223.143 43.2669C221.921 40.0552 218.33 38.4408 215.118 39.6648L202.753 44.3679L193.843 39.2257C196.873 38.182 199.929 37.5138 202.52 37.6877C205.937 37.9211 208.915 35.3394 209.153 31.9113C209.388 28.4854 206.803 25.5155 203.374 25.28C195.341 24.7242 186.482 28.356 180.46 31.4998L175.736 28.7696L180.25 18.6699C181.652 15.5346 180.248 11.8562 177.112 10.454C173.977 9.05176 170.299 10.4582 168.896 13.5936L164.906 22.518L162.912 21.3683V6.21977C162.912 2.78532 160.129 0 156.694 0C153.258 0 150.475 2.78532 150.475 6.21977V16.0501L147.369 17.8426L149.06 14.4039C150.574 11.3216 149.304 7.5944 146.221 6.07976C143.139 4.563 139.412 5.83581 137.897 8.91812L128.018 29.0157L125.988 30.1888V23.7102C125.988 20.2758 123.203 17.4905 119.768 17.4905C116.334 17.4905 113.548 20.2758 113.548 23.7102V37.3695L103.33 43.269V40.8125C103.33 37.378 100.545 34.5927 97.1101 34.5927C93.6757 34.5927 90.8904 37.378 90.8904 40.8125V46.1646L83.402 36.9029C81.2425 34.2321 77.3265 33.8163 74.6557 35.9758C71.985 38.1375 71.5713 42.0513 73.7308 44.7242L80.4746 53.0653C75.4003 51.4256 68.576 49.7518 61.8535 49.7518C58.4169 49.7518 55.6337 52.5371 55.6337 55.9716C55.6337 59.406 58.4169 62.1914 61.8535 62.1914C64.2994 62.1914 66.8131 62.499 69.223 62.9614L56.2192 70.4688L35.6146 72.412C32.195 72.7344 29.6854 75.7679 30.0079 79.1875C30.3112 82.4077 33.0202 84.8239 36.1916 84.8239C36.3868 84.8239 36.584 84.8133 36.7813 84.7964L50.5976 83.4917L51.1046 83.7845L45.9519 86.7141C42.965 88.4133 41.9213 92.2105 43.6184 95.1952C44.766 97.2105 46.8683 98.3411 49.0299 98.3411C50.0736 98.3411 51.128 98.0781 52.0995 97.5265L63.5887 90.9928L68.6333 93.9054L64.206 95.6767C61.0176 96.9517 59.4648 100.571 60.7419 103.759C61.7134 106.192 64.049 107.671 66.5183 107.671C67.2862 107.671 68.069 107.529 68.8263 107.225L82.3392 101.82L88.9663 105.645L86.6774 114.23C85.7928 117.548 87.7656 120.957 91.0855 121.841C91.6222 121.983 92.161 122.051 92.6914 122.051C95.4406 122.051 97.9544 120.216 98.6969 117.433L100.122 112.087L106.735 115.904L105.668 127.983C105.366 131.404 107.895 134.423 111.317 134.724C111.501 134.741 111.686 134.75 111.87 134.75C115.057 134.75 117.772 132.31 118.058 129.075L118.616 122.764L131.906 130.437L128.852 138.504C127.634 141.718 129.253 145.308 132.464 146.523C133.19 146.799 133.932 146.928 134.666 146.928C137.176 146.928 139.541 145.397 140.483 142.911L142.821 136.737L149.374 140.522L152.469 153.08C153.169 155.914 155.708 157.811 158.502 157.811C158.996 157.811 159.497 157.751 159.995 157.63C163.332 156.807 165.369 153.437 164.545 150.102L161.266 136.79L163.58 135.454L167.581 144.584C168.604 146.918 170.886 148.309 173.281 148.309C174.115 148.309 174.961 148.14 175.774 147.785C178.92 146.406 180.354 142.739 178.975 139.593L174.42 129.196L179.951 126.003L179.268 133.116C178.939 136.536 181.444 139.574 184.862 139.902C185.065 139.922 185.265 139.93 185.464 139.93C188.631 139.93 191.338 137.522 191.648 134.306L192.814 122.174L197.916 129.202C199.132 130.878 201.03 131.769 202.954 131.769C204.221 131.769 205.498 131.383 206.601 130.581C209.382 128.564 209.999 124.675 207.982 121.897L201.805 113.386L202.976 112.709L213.092 122.132C214.291 123.248 215.812 123.799 217.329 123.799C218.996 123.799 220.657 123.135 221.881 121.82C224.223 119.306 224.083 115.371 221.569 113.031L214.242 106.205L215.776 105.32L229.936 115.891C231.052 116.725 232.358 117.128 233.65 117.128C235.547 117.128 237.418 116.264 238.64 114.629C240.695 111.877 240.129 107.981 237.377 105.925L227.5 98.5511L230.139 97.028C233.807 99.2236 237.723 102.062 239.868 105.066C241.081 106.765 242.993 107.671 244.934 107.671C246.183 107.671 247.447 107.293 248.542 106.51C251.338 104.514 251.985 100.63 249.989 97.8363C248.676 95.9992 247.07 94.2873 245.326 92.7175L256.455 93.6551C256.633 93.6699 256.809 93.6763 256.985 93.6763C260.182 93.6763 262.901 91.224 263.175 87.9784C263.464 84.5567 260.922 81.5486 257.5 81.2601L257.456 81.2559L262.051 78.6042L260.142 77.5032C260.636 77.395 261.122 77.2847 261.597 77.1659C264.927 76.3322 266.953 72.955 266.119 69.6224V69.6224Z" fill="#FFF5AE"/>
<path d="M97.3565 84.7373C97.1295 84.7373 96.9004 84.716 96.6692 84.6757C88.6144 83.2375 79.9869 76.0737 79.0302 75.2612C77.3946 73.8717 77.1931 71.4194 78.5826 69.7818C79.9699 68.1462 82.4243 67.9447 84.0599 69.3341C86.2279 71.167 92.9589 76.1161 98.0353 77.0219C100.148 77.3995 101.557 79.419 101.179 81.5319C100.844 83.4135 99.2042 84.7373 97.3565 84.7373Z" fill="#F8DB8F"/>
<path d="M178.458 58.3053C176.428 58.3053 174.72 56.7312 174.582 54.6756C173.98 45.6175 165.604 41.8139 165.248 41.6569C163.294 40.7914 162.393 38.5067 163.248 36.5466C164.1 34.5843 166.366 33.6785 168.332 34.5207C168.865 34.7477 181.415 40.2823 182.34 54.1601C182.482 56.3006 180.861 58.1546 178.721 58.2968C178.632 58.301 178.545 58.3053 178.458 58.3053V58.3053Z" fill="#F8DB8F"/>
<path d="M168.725 80.4563C167.879 80.4563 167.028 80.1784 166.315 79.6078C164.255 77.9595 156.181 68.7019 153.757 65.9039C152.35 64.2811 152.526 61.8267 154.149 60.4202C155.77 59.0159 158.226 59.1898 159.631 60.8126C164.338 66.2433 170.091 72.654 171.173 73.5407C172.83 74.8942 173.097 77.3422 171.752 79.0053C170.982 79.9578 169.858 80.4563 168.725 80.4563Z" fill="#F8DB8F"/>
<path d="M212.668 99.8961C211.172 99.8961 209.749 99.0285 209.108 97.5733C208.243 95.6089 209.136 93.3136 211.1 92.4502C218.858 89.037 221.31 79.9958 221.334 79.9067C221.853 77.8235 223.966 76.5571 226.047 77.0789C228.131 77.5986 229.395 79.7094 228.875 81.7926C228.746 82.3123 225.562 94.58 214.231 99.5652C213.722 99.7901 213.19 99.8961 212.668 99.8961Z" fill="#F8DB8F"/>
<path d="M124.433 70.7428C122.287 70.7428 120.545 69.0033 120.545 66.8564C120.545 59.542 127.193 46.0333 127.953 44.5165C128.912 42.5967 131.247 41.8182 133.165 42.7791C135.085 43.738 135.865 46.0736 134.904 47.9934C132.359 53.091 128.318 62.7198 128.318 66.8564C128.32 69.0033 126.578 70.7428 124.433 70.7428Z" fill="#F8DB8F"/>
<path d="M154.756 109.224C154.652 109.224 154.548 109.22 154.444 109.211C138.748 107.972 133.837 102.561 133.012 101.487L139.174 96.7484C139.174 96.7484 139.145 96.7038 139.077 96.6274C139.111 96.6677 142.711 100.486 155.057 101.462C157.197 101.632 158.795 103.503 158.625 105.643C158.464 107.68 156.763 109.224 154.756 109.224Z" fill="#F8DB8F"/>
<path d="M162.722 132.158C161.534 132.158 160.363 131.617 159.601 130.59C158.318 128.87 158.676 126.435 160.399 125.151C167.758 119.674 171.678 109.502 171.716 109.4C172.478 107.393 174.722 106.384 176.731 107.145C178.736 107.907 179.748 110.151 178.986 112.158C178.795 112.661 174.202 124.57 165.038 131.39C164.342 131.908 163.528 132.158 162.722 132.158V132.158Z" fill="#F8DB8F"/>
<path d="M56.4144 143.819C56.1153 143.819 55.8119 143.785 55.5107 143.713C53.4211 143.214 52.1314 141.118 52.6278 139.031C54.8446 129.725 66.6478 121.038 67.9863 120.079C69.7301 118.827 72.159 119.228 73.4106 120.972C74.6601 122.718 74.2613 125.145 72.5175 126.396C69.5328 128.543 61.5035 135.321 60.1904 140.83C59.7661 142.616 58.173 143.819 56.4144 143.819Z" fill="#F8DB8F"/>
<path d="M81.5481 162.476C80.0547 162.476 78.6292 161.611 77.9885 160.156C73.1646 149.205 70.6868 141.43 70.585 141.104C69.9359 139.059 71.0708 136.874 73.1158 136.227C75.165 135.578 77.3458 136.71 77.9949 138.755C78.0182 138.832 80.462 146.486 85.1035 157.02C85.969 158.987 85.0759 161.28 83.1116 162.145C82.6025 162.37 82.0721 162.476 81.5481 162.476V162.476Z" fill="#F8DB8F"/>
<path d="M93.7244 202.124C93.3023 202.124 92.8716 202.054 92.4474 201.905C90.4194 201.201 89.3481 198.984 90.0545 196.958C93.6884 186.508 104.948 181.642 105.426 181.438C107.405 180.602 109.683 181.527 110.521 183.504C111.357 185.477 110.436 187.754 108.466 188.594C108.319 188.657 99.8742 192.387 97.3965 199.512C96.8386 201.116 95.3345 202.124 93.7244 202.124Z" fill="#F8DB8F"/>
<path d="M113.16 233.218C111.586 233.218 110.105 232.255 109.52 230.696C108.767 228.685 109.785 226.445 111.794 225.692C118.907 223.023 120.557 215.641 120.625 215.329C121.071 213.237 123.122 211.886 125.216 212.321C127.31 212.754 128.661 214.782 128.243 216.877C128.147 217.359 125.746 228.761 114.524 232.97C114.074 233.14 113.614 233.218 113.16 233.218Z" fill="#F8DB8F"/>
<path d="M49.8042 197.847C48.3574 197.847 46.9658 197.034 46.2976 195.643C45.3684 193.706 46.183 191.385 48.1198 190.454C58.525 185.458 59.4266 178.35 59.4605 178.048C59.626 175.908 61.4949 174.34 63.6332 174.506C65.7737 174.671 67.3711 176.572 67.2056 178.712C67.1695 179.188 66.1343 190.426 51.4843 197.463C50.9433 197.724 50.3684 197.847 49.8042 197.847V197.847Z" fill="#F8DB8F"/>
<path d="M106.936 166.75C106.139 166.75 105.335 166.506 104.641 165.999C102.91 164.728 102.537 162.295 103.805 160.564C108.559 154.084 121.412 148.286 122.863 147.647C124.826 146.78 127.121 147.671 127.986 149.633C128.854 151.595 127.965 153.891 126.003 154.758C121.255 156.856 112.734 161.536 110.076 165.163C109.312 166.201 108.133 166.75 106.936 166.75V166.75Z" fill="#F8DB8F"/>
<path d="M56.4144 251.532C56.1153 251.532 55.8119 251.498 55.5107 251.426C53.4211 250.927 52.1314 248.831 52.6278 246.744C54.8446 237.438 66.6478 228.751 67.9863 227.792C69.7301 226.54 72.159 226.941 73.4106 228.685C74.6601 230.431 74.2613 232.858 72.5175 234.109C69.5328 236.256 61.5035 243.034 60.1904 248.543C59.7661 250.329 58.173 251.532 56.4144 251.532Z" fill="#F8DB8F"/>
<path d="M81.5481 270.189C80.0547 270.189 78.6292 269.324 77.9885 267.868C73.1646 256.918 70.6868 249.143 70.585 248.817C69.9359 246.772 71.0708 244.587 73.1158 243.94C75.165 243.29 77.3458 244.423 77.9949 246.468C78.0182 246.545 80.462 254.198 85.1035 264.733C85.969 266.7 85.0759 268.993 83.1116 269.858C82.6025 270.083 82.0721 270.189 81.5481 270.189V270.189Z" fill="#F8DB8F"/>
<path d="M93.7244 309.836C93.3023 309.836 92.8716 309.766 92.4474 309.618C90.4194 308.914 89.3481 306.697 90.0545 304.671C93.6884 294.221 104.948 289.355 105.426 289.151C107.405 288.315 109.683 289.24 110.521 291.217C111.357 293.19 110.436 295.466 108.466 296.306C108.319 296.37 99.8742 300.099 97.3965 307.225C96.8386 308.829 95.3345 309.836 93.7244 309.836Z" fill="#F8DB8F"/>
<path d="M113.16 340.931C111.586 340.931 110.105 339.968 109.52 338.409C108.767 336.398 109.785 334.158 111.794 333.405C118.907 330.736 120.557 323.354 120.625 323.042C121.071 320.95 123.122 319.599 125.216 320.034C127.31 320.466 128.661 322.494 128.243 324.59C128.147 325.072 125.746 336.474 114.524 340.683C114.074 340.853 113.614 340.931 113.16 340.931Z" fill="#F8DB8F"/>
<path d="M49.8042 305.56C48.3574 305.56 46.9658 304.747 46.2976 303.356C45.3684 301.419 46.183 299.098 48.1198 298.167C58.525 293.171 59.4266 286.062 59.4605 285.761C59.626 283.621 61.4949 282.053 63.6332 282.219C65.7737 282.384 67.3711 284.285 67.2056 286.425C67.1695 286.9 66.1343 298.139 51.4843 305.176C50.9433 305.437 50.3684 305.56 49.8042 305.56V305.56Z" fill="#F8DB8F"/>
<path d="M106.936 274.463C106.139 274.463 105.335 274.219 104.641 273.712C102.91 272.441 102.537 270.008 103.805 268.277C108.559 261.796 121.412 255.999 122.863 255.36C124.826 254.493 127.121 255.384 127.986 257.346C128.854 259.308 127.965 261.603 126.003 262.471C121.255 264.569 112.734 269.249 110.076 272.876C109.312 273.914 108.133 274.463 106.936 274.463V274.463Z" fill="#F8DB8F"/>
<path d="M56.4144 352.982C56.1153 352.982 55.8119 352.948 55.5107 352.876C53.4211 352.378 52.1314 350.282 52.6278 348.194C54.8446 338.888 66.6478 330.201 67.9863 329.242C69.7301 327.991 72.159 328.392 73.4106 330.135C74.6601 331.881 74.2613 334.308 72.5175 335.56C69.5328 337.707 61.5035 344.484 60.1904 349.993C59.7661 351.78 58.173 352.982 56.4144 352.982Z" fill="#F8DB8F"/>
<path d="M81.5481 371.64C80.0547 371.64 78.6292 370.774 77.9885 369.319C73.1646 358.368 70.6868 350.594 70.585 350.267C69.9359 348.222 71.0708 346.037 73.1158 345.39C75.165 344.741 77.3458 345.874 77.9949 347.919C78.0182 347.995 80.462 355.649 85.1035 366.183C85.969 368.15 85.0759 370.443 83.1116 371.309C82.6025 371.534 82.0721 371.64 81.5481 371.64V371.64Z" fill="#F8DB8F"/>
<path d="M93.7244 411.287C93.3023 411.287 92.8716 411.217 92.4474 411.068C90.4194 410.364 89.3481 408.147 90.0545 406.121C93.6884 395.672 104.948 390.805 105.426 390.602C107.405 389.766 109.683 390.691 110.521 392.668C111.357 394.641 110.436 396.917 108.466 397.757C108.319 397.821 99.8742 401.55 97.3965 408.676C96.8386 410.279 95.3345 411.287 93.7244 411.287Z" fill="#F8DB8F"/>
<path d="M113.16 442.382C111.586 442.382 110.105 441.418 109.52 439.859C108.767 437.848 109.785 435.608 111.794 434.855C118.907 432.186 120.557 424.804 120.625 424.492C121.071 422.401 123.122 421.049 125.216 421.484C127.31 421.917 128.661 423.945 128.243 426.041C128.147 426.522 125.746 437.925 114.524 442.133C114.074 442.303 113.614 442.382 113.16 442.382Z" fill="#F8DB8F"/>
<path d="M49.8042 407.01C48.3574 407.01 46.9658 406.198 46.2976 404.806C45.3684 402.869 46.183 400.549 48.1198 399.617C58.525 394.622 59.4266 387.513 59.4605 387.212C59.626 385.071 61.4949 383.504 63.6332 383.669C65.7737 383.835 67.3711 385.735 67.2056 387.876C67.1695 388.351 66.1343 399.59 51.4843 406.626C50.9433 406.887 50.3684 407.01 49.8042 407.01V407.01Z" fill="#F8DB8F"/>
<path d="M106.936 375.914C106.139 375.914 105.335 375.67 104.641 375.163C102.91 373.892 102.537 371.459 103.805 369.728C108.559 363.247 121.412 357.449 122.863 356.811C124.826 355.943 127.121 356.834 127.986 358.796C128.854 360.759 127.965 363.054 126.003 363.922C121.255 366.02 112.734 370.699 110.076 374.327C109.312 375.364 108.133 375.914 106.936 375.914V375.914Z" fill="#F8DB8F"/>
<path d="M181.183 180.227C180.833 180.227 180.479 180.18 180.127 180.081C168.572 176.82 163.586 167.815 163.381 167.433C162.36 165.545 163.062 163.186 164.95 162.166C166.832 161.148 169.18 161.841 170.207 163.714C170.379 164.022 173.973 170.267 182.235 172.597C184.301 173.18 185.504 175.327 184.923 177.393C184.439 179.107 182.88 180.227 181.183 180.227Z" fill="#F7BD69"/>
<path d="M218.884 166.752C217.191 166.752 215.636 165.639 215.148 163.931C214.537 161.903 207.305 156.549 199.976 152.701C198.075 151.704 197.343 149.353 198.34 147.452C199.338 145.552 201.688 144.82 203.589 145.817C207.581 147.913 220.755 155.261 222.621 161.795C223.211 163.859 222.017 166.01 219.953 166.6C219.596 166.704 219.236 166.752 218.884 166.752V166.752Z" fill="#F7BD69"/>
<path d="M259.109 124.183C254.013 124.183 249.573 123.4 249.293 123.35C247.18 122.97 245.774 120.948 246.156 118.835C246.535 116.722 248.553 115.316 250.668 115.698C253.143 116.139 260.602 117.013 265.313 115.766C267.386 115.216 269.516 116.453 270.065 118.53C270.615 120.605 269.378 122.732 267.301 123.282C264.741 123.961 261.832 124.183 259.109 124.183V124.183Z" fill="#F7BD69"/>
<path d="M244.543 153.146C243.285 153.146 242.055 152.539 241.306 151.415C238.442 147.121 234.06 142.722 234.017 142.679C232.498 141.16 232.498 138.7 234.017 137.181C235.536 135.664 237.995 135.664 239.514 137.181C239.715 137.382 244.488 142.174 247.772 147.102C248.964 148.888 248.481 151.303 246.694 152.493C246.033 152.936 245.284 153.146 244.543 153.146V153.146Z" fill="#F7BD69"/>
<path d="M249.976 199.79C249.316 199.79 248.646 199.623 248.033 199.266C239.263 194.188 236.949 183.946 236.853 183.513C236.397 181.415 237.73 179.345 239.828 178.888C241.919 178.432 243.985 179.758 244.448 181.846C244.484 182.007 246.211 189.228 251.928 192.539C253.786 193.615 254.42 195.993 253.345 197.851C252.624 199.094 251.319 199.79 249.976 199.79V199.79Z" fill="#F7BD69"/>
<path d="M218.888 202.124C217.397 202.124 215.977 201.262 215.333 199.813C213.008 194.58 206.943 187.613 204.8 185.371C203.319 183.818 203.377 181.358 204.929 179.875C206.482 178.392 208.943 178.449 210.424 180.004C210.776 180.371 219.092 189.13 222.437 196.657C223.309 198.617 222.426 200.914 220.464 201.786C219.951 202.015 219.414 202.124 218.888 202.124V202.124Z" fill="#F7BD69"/>
<path d="M170.687 211.063C169.06 211.063 167.543 210.032 167 208.405C165.596 204.192 160.982 201.712 160.935 201.689C159.028 200.704 158.279 198.36 159.265 196.451C160.248 194.544 162.594 193.795 164.501 194.781C165.262 195.174 172 198.821 174.374 205.946C175.052 207.983 173.952 210.182 171.915 210.861C171.508 210.999 171.094 211.063 170.687 211.063V211.063Z" fill="#F7BD69"/>
<path d="M181.181 249.544C180.727 249.544 180.267 249.463 179.817 249.296C172.596 246.587 167.755 240.068 167.551 239.792C166.283 238.061 166.656 235.628 168.387 234.359C170.114 233.091 172.543 233.462 173.814 235.187C173.877 235.269 177.549 240.142 182.545 242.015C184.556 242.771 185.574 245.011 184.821 247.02C184.236 248.581 182.755 249.544 181.181 249.544Z" fill="#F7BD69"/>
<path d="M210.337 233.218C209 233.218 207.698 232.527 206.977 231.29C205.362 228.521 199.253 224.83 196.546 223.479C194.626 222.518 193.848 220.182 194.808 218.263C195.767 216.343 198.103 215.564 200.023 216.525C201.083 217.056 210.479 221.867 213.691 227.372C214.773 229.226 214.147 231.606 212.293 232.688C211.675 233.046 211.003 233.218 210.337 233.218V233.218Z" fill="#F7BD69"/>
<path d="M268.126 169.501C262.329 169.501 252.806 166.924 251.669 166.61C249.598 166.039 248.383 163.899 248.956 161.831C249.524 159.762 251.662 158.545 253.735 159.115C257.844 160.248 265.545 161.952 268.729 161.71C270.873 161.546 272.738 163.146 272.901 165.286C273.067 167.427 271.465 169.296 269.325 169.461C268.947 169.489 268.548 169.501 268.126 169.501V169.501Z" fill="#F7BD69"/>
<path d="M245.288 221.557C238.975 221.557 232.129 217.626 231.368 217.177C229.52 216.086 228.905 213.704 229.997 211.854C231.088 210.006 233.468 209.393 235.316 210.479C236.885 211.4 241.733 213.782 245.288 213.782H245.318C247.46 213.782 249.198 215.518 249.204 217.66C249.21 219.807 247.473 221.551 245.326 221.557C245.313 221.557 245.301 221.557 245.288 221.557V221.557Z" fill="#F7BD69"/>
<path d="M181.183 296.707C180.833 296.707 180.479 296.661 180.127 296.561C168.572 293.3 163.586 284.295 163.381 283.913C162.36 282.025 163.062 279.666 164.95 278.646C166.832 277.628 169.18 278.321 170.207 280.195C170.379 280.502 173.973 286.747 182.235 289.077C184.301 289.66 185.504 291.807 184.923 293.873C184.439 295.587 182.88 296.707 181.183 296.707Z" fill="#F7BD69"/>
<path d="M218.884 283.233C217.191 283.233 215.636 282.119 215.148 280.411C214.537 278.383 207.305 273.029 199.976 269.181C198.075 268.184 197.343 265.833 198.34 263.933C199.338 262.032 201.688 261.3 203.589 262.297C207.581 264.393 220.755 271.741 222.621 278.275C223.211 280.339 222.017 282.49 219.953 283.08C219.596 283.184 219.236 283.233 218.884 283.233V283.233Z" fill="#F7BD69"/>
<path d="M259.109 240.663C254.013 240.663 249.573 239.881 249.293 239.83C247.18 239.45 245.774 237.428 246.156 235.316C246.535 233.203 248.553 231.796 250.668 232.178C253.143 232.619 260.602 233.493 265.313 232.246C267.386 231.697 269.516 232.933 270.065 235.01C270.615 237.085 269.378 239.212 267.301 239.762C264.741 240.441 261.832 240.663 259.109 240.663V240.663Z" fill="#F7BD69"/>
<path d="M244.543 269.626C243.285 269.626 242.055 269.02 241.306 267.895C238.442 263.602 234.06 259.202 234.017 259.159C232.498 257.641 232.498 255.18 234.017 253.661C235.536 252.144 237.995 252.144 239.514 253.661C239.715 253.862 244.488 258.655 247.772 263.582C248.964 265.369 248.481 267.783 246.694 268.973C246.033 269.416 245.284 269.626 244.543 269.626V269.626Z" fill="#F7BD69"/>
<path d="M249.976 316.27C249.316 316.27 248.646 316.103 248.033 315.746C239.263 310.668 236.949 300.426 236.853 299.993C236.397 297.895 237.73 295.825 239.828 295.369C241.919 294.913 243.985 296.238 244.448 298.326C244.484 298.487 246.211 305.708 251.928 309.02C253.786 310.095 254.42 312.473 253.345 314.331C252.624 315.574 251.319 316.27 249.976 316.27V316.27Z" fill="#F7BD69"/>
<path d="M218.888 318.604C217.397 318.604 215.977 317.742 215.333 316.294C213.008 311.06 206.943 304.094 204.8 301.851C203.319 300.299 203.377 297.838 204.929 296.355C206.482 294.872 208.943 294.929 210.424 296.484C210.776 296.851 219.092 305.61 222.437 313.137C223.309 315.097 222.426 317.395 220.464 318.266C219.951 318.495 219.414 318.604 218.888 318.604V318.604Z" fill="#F7BD69"/>
<path d="M170.687 327.543C169.06 327.543 167.543 326.512 167 324.885C165.596 320.672 160.982 318.192 160.935 318.169C159.028 317.184 158.279 314.84 159.265 312.931C160.248 311.024 162.594 310.275 164.501 311.262C165.262 311.654 172 315.301 174.374 322.426C175.052 324.463 173.952 326.663 171.915 327.342C171.508 327.479 171.094 327.543 170.687 327.543V327.543Z" fill="#F7BD69"/>
<path d="M181.181 366.024C180.727 366.024 180.267 365.944 179.817 365.776C172.596 363.067 167.755 356.548 167.551 356.272C166.283 354.541 166.656 352.108 168.387 350.84C170.114 349.571 172.543 349.942 173.814 351.667C173.877 351.75 177.549 356.622 182.545 358.496C184.556 359.251 185.574 361.491 184.821 363.5C184.236 365.061 182.755 366.024 181.181 366.024Z" fill="#F7BD69"/>
<path d="M210.337 349.698C209 349.698 207.698 349.007 206.977 347.77C205.362 345.002 199.253 341.31 196.546 339.959C194.626 338.998 193.848 336.663 194.808 334.743C195.767 332.823 198.103 332.044 200.023 333.005C201.083 333.536 210.479 338.347 213.691 343.852C214.773 345.706 214.147 348.086 212.293 349.168C211.675 349.526 211.003 349.698 210.337 349.698V349.698Z" fill="#F7BD69"/>
<path d="M268.126 285.982C262.329 285.982 252.806 283.404 251.669 283.09C249.598 282.52 248.383 280.379 248.956 278.311C249.524 276.243 251.662 275.025 253.735 275.596C257.844 276.728 265.545 278.432 268.729 278.19C270.873 278.027 272.738 279.626 272.901 281.767C273.067 283.907 271.465 285.776 269.325 285.941C268.947 285.969 268.548 285.982 268.126 285.982V285.982Z" fill="#F7BD69"/>
<path d="M245.288 338.037C238.975 338.037 232.129 334.107 231.368 333.657C229.52 332.566 228.905 330.184 229.997 328.334C231.088 326.487 233.468 325.874 235.316 326.96C236.885 327.88 241.733 330.263 245.288 330.263H245.318C247.46 330.263 249.198 331.998 249.204 334.14C249.21 336.287 247.473 338.031 245.326 338.037C245.313 338.037 245.301 338.037 245.288 338.037V338.037Z" fill="#F7BD69"/>
<path d="M181.183 414.44C180.833 414.44 180.479 414.393 180.127 414.294C168.572 411.033 163.586 402.028 163.381 401.646C162.36 399.758 163.062 397.399 164.95 396.379C166.832 395.36 169.18 396.054 170.207 397.927C170.379 398.235 173.973 404.48 182.235 406.809C184.301 407.393 185.504 409.54 184.923 411.606C184.439 413.32 182.88 414.44 181.183 414.44Z" fill="#F7BD69"/>
<path d="M218.884 400.965C217.191 400.965 215.636 399.852 215.148 398.144C214.537 396.116 207.305 390.762 199.976 386.913C198.075 385.916 197.343 383.566 198.34 381.665C199.338 379.764 201.688 379.033 203.589 380.03C207.581 382.126 220.755 389.474 222.621 396.008C223.211 398.072 222.017 400.223 219.953 400.812C219.596 400.916 219.236 400.965 218.884 400.965V400.965Z" fill="#F7BD69"/>
<path d="M259.109 358.396C254.013 358.396 249.573 357.613 249.293 357.562C247.18 357.183 245.774 355.161 246.156 353.048C246.535 350.935 248.553 349.529 250.668 349.911C253.143 350.352 260.602 351.226 265.313 349.979C267.386 349.429 269.516 350.666 270.065 352.743C270.615 354.817 269.378 356.945 267.301 357.495C264.741 358.173 261.832 358.396 259.109 358.396V358.396Z" fill="#F7BD69"/>
<path d="M244.543 387.359C243.285 387.359 242.055 386.752 241.306 385.628C238.442 381.334 234.06 376.935 234.017 376.892C232.498 375.373 232.498 372.913 234.017 371.394C235.536 369.877 237.995 369.877 239.514 371.394C239.715 371.595 244.488 376.387 247.772 381.315C248.964 383.101 248.481 385.515 246.694 386.706C246.033 387.149 245.284 387.359 244.543 387.359V387.359Z" fill="#F7BD69"/>
<path d="M249.976 434.003C249.316 434.003 248.646 433.835 248.033 433.479C239.263 428.4 236.949 418.159 236.853 417.726C236.397 415.628 237.73 413.557 239.828 413.101C241.919 412.645 243.985 413.971 244.448 416.058C244.484 416.22 246.211 423.441 251.928 426.752C253.786 427.828 254.42 430.206 253.345 432.064C252.624 433.307 251.319 434.003 249.976 434.003V434.003Z" fill="#F7BD69"/>
<path d="M218.888 436.336C217.397 436.336 215.977 435.475 215.333 434.026C213.008 428.793 206.943 421.826 204.8 419.584C203.319 418.031 203.377 415.57 204.929 414.088C206.482 412.605 208.943 412.662 210.424 414.217C210.776 414.584 219.092 423.343 222.437 430.87C223.309 432.83 222.426 435.127 220.464 435.999C219.951 436.228 219.414 436.336 218.888 436.336V436.336Z" fill="#F7BD69"/>
<path d="M170.687 445.276C169.06 445.276 167.543 444.245 167 442.618C165.596 438.405 160.982 435.925 160.935 435.901C159.028 434.917 158.279 432.573 159.265 430.664C160.248 428.757 162.594 428.008 164.501 428.994C165.262 429.387 172 433.033 174.374 440.159C175.052 442.196 173.952 444.395 171.915 445.074C171.508 445.212 171.094 445.276 170.687 445.276V445.276Z" fill="#F7BD69"/>
<path d="M181.181 483.757C180.727 483.757 180.267 483.676 179.817 483.509C172.596 480.8 167.755 474.281 167.551 474.005C166.283 472.274 166.656 469.841 168.387 468.572C170.114 467.304 172.543 467.675 173.814 469.4C173.877 469.482 177.549 474.355 182.545 476.228C184.556 476.983 185.574 479.224 184.821 481.232C184.236 482.794 182.755 483.757 181.181 483.757Z" fill="#F7BD69"/>
<path d="M210.337 467.431C209 467.431 207.698 466.739 206.977 465.503C205.362 462.734 199.253 459.043 196.546 457.692C194.626 456.731 193.848 454.395 194.808 452.475C195.767 450.556 198.103 449.777 200.023 450.738C201.083 451.268 210.479 456.08 213.691 461.585C214.773 463.439 214.147 465.819 212.293 466.901C211.675 467.259 211.003 467.431 210.337 467.431V467.431Z" fill="#F7BD69"/>
<path d="M268.126 403.714C262.329 403.714 252.806 401.137 251.669 400.823C249.598 400.252 248.383 398.112 248.956 396.044C249.524 393.975 251.662 392.758 253.735 393.328C257.844 394.461 265.545 396.165 268.729 395.923C270.873 395.759 272.738 397.359 272.901 399.499C273.067 401.64 271.465 403.509 269.325 403.674C268.947 403.702 268.548 403.714 268.126 403.714V403.714Z" fill="#F7BD69"/>
<path d="M245.288 455.77C238.975 455.77 232.129 451.839 231.368 451.389C229.52 450.299 228.905 447.917 229.997 446.067C231.088 444.219 233.468 443.606 235.316 444.692C236.885 445.613 241.733 447.995 245.288 447.995H245.318C247.46 447.995 249.198 449.731 249.204 451.873C249.21 454.02 247.473 455.764 245.326 455.77C245.313 455.77 245.301 455.77 245.288 455.77V455.77Z" fill="#F7BD69"/>
</svg>
