<svg width="301" height="710" viewBox="0 0 301 710" fill="none" xmlns="http://www.w3.org/2000/svg">
<path d="M301 603.168V623.031L151.396 709.971V690.109L301 603.168Z" fill="#86BC06"/>
<path d="M151.396 690.109V709.971L0.816986 623.034V603.172L151.396 690.109Z" fill="#8FCC05"/>
<path d="M301 603.168L151.396 690.109L0.817017 603.172L150.423 516.233L301 603.168Z" fill="#9CDD03"/>
<path d="M159.995 489.354C160.051 487.973 159.168 486.58 157.343 485.527C153.817 483.491 148.119 483.491 144.616 485.527C142.869 486.542 141.999 487.87 142 489.2C142 489.196 142 489.191 142 489.187V601.77C141.997 603.113 142.883 604.457 144.657 605.482C148.184 607.518 153.881 607.518 157.385 605.482C159.125 604.471 159.997 603.147 160 601.822V489.238C160 489.276 159.996 489.315 159.995 489.354Z" fill="#FFA834"/>
<path d="M54.5931 68.3131L68.2469 66.6422L74.7647 77.3367L87.0095 78.1054L95.712 85.0045L105.725 89.6327L115.465 94.7336L123.413 102.941L132.28 109.561L142.846 113.235L151.499 119.928L151.682 120.07L159.277 111.195L162.971 109.428L169.182 106.458L169.618 106.411L181.099 105.198L190.451 99.5203L200.596 95.2142L209.955 89.5585L220.16 85.3608L226.699 74.856L236.775 70.4325L240.827 66.5218L244.879 62.6131L253.802 56.2067L258.335 55.1821L248.634 53.6628L240 48.0411L230.747 43.4922L222.89 36.5258L212.426 34.0773L202.839 30.1114L197.682 18.4716L185.783 18.5028L179.895 8.11641L168.166 7.85449L160.365 0L150.975 1.44506L143.504 3.95384L133.689 7.44004L122.724 8.95033L115.811 17.431L107.652 23.7612L99.2755 29.722L87.5896 29.9839L78.1716 34.1565L71.5193 43.0968L62.1515 47.3537L51.6197 49.6247L42.8399 57.0497L44.842 60.8781L45.6247 61.8535L54.5931 68.3131Z" fill="#9CDD03"/>
<path d="M244.879 62.6131L253.802 56.2067L258.335 55.1821L261.95 55.7481L260.907 67.9006L253.595 77.6488L255.39 87.3698L255.379 97.0968L252.898 106.827L262 116.529L260.128 126.255L257.964 135.982L259.547 145.701L260.86 155.423L255.489 165.158L258 170.5L261.5 174L261.95 180.748L260.907 192.901L253.595 202.649L255.39 212.37L255.379 222.097L252.898 231.827L262 241.529L260.128 251.255L257.964 260.982L259.547 270.701L260.86 280.423L255.489 290.158L260.967 299.868L259.882 307.424L261.95 307.748L260.907 319.901L253.595 329.649L255.39 339.37L255.379 349.097L252.898 358.827L262 368.529L260.128 378.255L257.964 387.982L259.547 397.701L260.86 407.423L255.489 417.158L260.967 426.868L259.571 436.592L254.828 444.313L249.676 452.039L240.037 455.845L233.806 465.503L224.493 469.862L211.838 468.464L206.203 479.14L195.735 481.501L189.447 491.052L180.858 496.647L168.856 496.372L161.391 503.904L154.071 508.121L155.335 502.254L154.357 491.512L147.427 480.793L155.061 470.037L148.303 459.317L154.494 448.571L154.488 437.839L147.262 427.123L153.6 416.375L150.992 405.646L150.273 394.913L149.878 384.183L151.69 373.446L153 373V370.53H154.357L154.722 368.518L154.357 364.512L147.427 353.793L155.061 343.037L148.303 332.317L154.494 321.571L154.488 310.839L147.262 300.123L153.6 289.375L150.992 278.646L150.273 267.913L149.878 257.183L151.69 246.446L151.181 244.683L151.499 244.928L151.682 245.07L154.557 241.711L154.357 239.512L147.427 228.793L155.061 218.037L148.303 207.317L154.494 196.571L154.488 185.839L147.262 175.123L153.6 164.375L150.991 153.646L150.273 142.913L149.878 132.183L151.69 121.446L151.181 119.683L151.499 119.928L151.682 120.07L159.277 111.195L162.971 109.428L165.848 109.355L169.618 106.411L181.099 105.198L190.451 99.5203L200.596 95.2142L209.955 89.5584L220.16 85.3607L226.699 74.856L236.775 70.4325L244.879 62.6131Z" fill="#86BC06"/>
<path d="M147.427 228.793L154.357 239.512L155.335 250.254L154.071 256.121L151.966 257.335L149.924 256.908L149.878 257.183L150.273 267.913L150.992 278.646L153.6 289.375L147.262 300.123L154.488 310.839L154.494 321.571L148.303 332.317L155.061 343.037L147.427 353.793L154.357 364.512L155.335 375.254L154.071 381.121L151.966 382.335L150.25 381.976L149.878 384.183L150.273 394.913L150.992 405.646L153.6 416.375L147.262 427.123L154.488 437.839L154.494 448.571L148.303 459.317L155.061 470.037L147.427 480.793L154.357 491.512L155.335 502.254L154.071 508.121L151.966 509.335L140.697 506.98L131.95 501.541L125.423 492.269L116.358 487.386L107.654 481.884L96.8129 480.088L89.2886 472.55L80.0081 468.051L71.5545 462.118L61.6237 458.744L54.2429 450.951L48.7296 444.106L47.0959 436.586L40 426.87L48.9875 417.126L42.6955 407.412L41.2865 397.69L48.6001 387.952L46.2258 378.237L40.0763 368.528L42.9373 358.798L49.2715 349.061L47.8094 339.341L47.0628 329.619L48.5118 319.895L46.5 317L47.0959 315L48 313L47.0959 309.586L40 299.87L48.9875 290.126L42.6955 280.412L41.2865 270.69L48.6001 260.952L46.2258 251.237L40.0763 241.528L42.9373 231.798L49.2715 222.061L47.8094 212.341L47.0628 202.619L48.5118 192.895L44.842 185.878L45.6247 186.853L47.9527 188.53L47.0958 184.586L40 174.87L48.9875 165.126L42.6954 155.412L41.2865 145.69L48.6001 135.952L46.2258 126.237L40.0763 116.528L42.9373 106.798L49.2715 97.0607L47.8093 87.3407L47.0627 77.6186L48.5118 67.8946L44.842 60.8781L45.6247 61.8535L54.5931 68.3131L68.2469 66.6422L74.7647 77.3367L87.0095 78.1053L95.712 85.0045L105.725 89.6327L115.465 94.7335L123.413 102.941L132.28 109.561L142.846 113.235L151.181 119.683L151.69 121.446L149.878 132.183L150.273 142.913L150.991 153.646L153.6 164.375L147.262 175.123L154.488 185.839L154.494 196.571L148.303 207.317L155.061 218.037L147.427 228.793Z" fill="#8FCC05"/>
</svg>
