<svg width="301" height="458" viewBox="0 0 301 458" fill="none" xmlns="http://www.w3.org/2000/svg">
<g clip-path="url(#clip0)">
<path d="M301 351.168V371.031L151.396 457.971V438.109L301 351.168Z" fill="#86BC06"/>
<path d="M151.396 438.109V457.971L0.817017 371.034V351.172L151.396 438.109Z" fill="#8FCC05"/>
<path d="M301 351.168L151.396 438.109L0.817017 351.172L150.423 264.233L301 351.168Z" fill="#9CDD03"/>
<path d="M159.995 237.354C160.051 235.973 159.168 234.58 157.343 233.527C153.817 231.491 148.119 231.491 144.616 233.527C142.869 234.542 141.999 235.87 142 237.2C142 237.196 142 237.191 142 237.187V349.77C141.997 351.113 142.882 352.457 144.657 353.482C148.184 355.518 153.881 355.518 157.384 353.482C159.125 352.471 159.997 351.147 160 349.822V237.238C160 237.276 159.996 237.315 159.995 237.354Z" fill="#FFA834"/>
<path d="M54.5931 68.3131L68.2469 66.6422L74.7647 77.3367L87.0096 78.1054L95.712 85.0045L105.725 89.6327L115.465 94.7336L123.413 102.941L132.28 109.561L142.846 113.235L151.499 119.928L151.682 120.07L159.277 111.195L162.971 109.428L169.182 106.458L169.618 106.411L181.099 105.198L190.451 99.5203L200.596 95.2142L209.955 89.5585L220.16 85.3608L226.699 74.856L236.775 70.4325L240.827 66.5218L244.879 62.6131L253.802 56.2067L258.335 55.1821L248.634 53.6628L240 48.0411L230.747 43.4922L222.89 36.5258L212.427 34.0773L202.839 30.1114L197.682 18.4716L185.783 18.5028L179.895 8.11641L168.166 7.85449L160.365 0L150.975 1.44506L143.504 3.95384L133.689 7.44004L122.724 8.95033L115.811 17.431L107.652 23.7612L99.2755 29.722L87.5896 29.9839L78.1716 34.1565L71.5194 43.0968L62.1516 47.3537L51.6197 49.6247L42.84 57.0497L44.842 60.8781L45.6247 61.8535L54.5931 68.3131Z" fill="#9CDD03"/>
<path d="M244.879 62.6131L240.827 66.5218L236.775 70.4325L226.699 74.856L220.16 85.3607L209.955 89.5584L200.596 95.2142L190.451 99.5203L181.099 105.198L169.618 106.411L165.848 109.355L162.971 109.428L159.277 111.195L151.682 120.07L151.499 119.928L151.181 119.683L151.69 121.446L149.878 132.183L150.273 142.913L150.991 153.646L153.6 164.375L147.262 175.123L154.488 185.839L154.494 196.571L148.303 207.317L155.061 218.037L147.427 228.793L154.357 239.512L155.335 250.254L154.071 256.121L161.391 251.904L168.856 244.372L180.858 244.647L189.447 239.052L195.735 229.501L206.203 227.14L211.838 216.464L224.493 217.862L233.806 213.503L240.037 203.845L249.676 200.039L254.828 192.313L259.571 184.592L260.967 174.868L255.489 165.158L260.86 155.423L259.547 145.701L257.964 135.982L260.128 126.255L262 116.529L252.898 106.827L255.379 97.0968L255.39 87.3698L253.595 77.6488L260.907 67.9006L261.95 55.7481L258.335 55.1821L253.802 56.2067L244.879 62.6131Z" fill="#86BC06"/>
<path d="M154.357 239.512L147.427 228.793L155.061 218.037L148.303 207.317L154.494 196.571L154.488 185.839L147.262 175.123L153.6 164.375L150.991 153.646L150.273 142.913L149.878 132.183L151.69 121.446L151.181 119.683L142.846 113.235L132.28 109.561L123.413 102.941L115.465 94.7335L105.725 89.6327L95.712 85.0045L87.0095 78.1053L74.7647 77.3367L68.2469 66.6422L54.5931 68.3131L45.6247 61.8535L44.842 60.8781L48.5118 67.8946L47.0627 77.6186L47.8093 87.3407L49.2715 97.0607L42.9373 106.798L40.0763 116.528L46.2258 126.237L48.6001 135.952L41.2865 145.69L42.6954 155.412L48.9875 165.126L40 174.87L47.0958 184.586L48.7296 192.106L54.2429 198.951L61.6237 206.744L71.5544 210.118L80.008 216.051L89.2885 220.55L96.8129 228.088L107.654 229.884L116.358 235.386L125.423 240.269L131.95 249.541L140.697 254.98L151.966 257.335L154.071 256.121L155.335 250.254L154.357 239.512Z" fill="#8FCC05"/>
</g>
<defs>
<clipPath id="clip0">
<rect width="301" height="458" fill="white"/>
</clipPath>
</defs>
</svg>
