<svg width="301" height="306" viewBox="0 0 301 306" fill="none" xmlns="http://www.w3.org/2000/svg">
<path d="M301 199.168V219.031L151.396 305.971V286.109L301 199.168Z" fill="#86BC06"/>
<path d="M151.396 286.109V305.971L0.817017 219.034V199.172L151.396 286.109Z" fill="#8FCC05"/>
<path d="M301 199.168L151.396 286.109L0.817017 199.172L150.423 112.233L301 199.168Z" fill="#9CDD03"/>
<path d="M154.876 82.7877C154.905 82.0693 154.445 81.3436 153.495 80.7948C151.658 79.7351 148.692 79.7351 146.867 80.7948C145.958 81.3229 145.505 82.0154 145.505 82.7079C145.505 82.7079 145.505 82.7039 145.505 82.7013V200.644C145.503 201.343 145.965 202.043 146.888 202.577C148.725 203.637 151.691 203.637 153.516 202.577C154.423 202.05 154.876 201.362 154.878 200.671V82.7279C154.878 82.7478 154.876 82.7678 154.876 82.7877Z" fill="#FFA834"/>
<path d="M211.285 70.8928L211.22 73.4204L216.446 76.3831L220.169 79.6117L210.627 80.9858L213.268 84.1242L210.921 86.2789L215.403 90.3126L205.129 89.7603L204.006 91.8969L212.224 98.1136L214.004 102.104L206.614 101.436L209.057 105.985L204.97 106.695L203.661 109.084L204.788 113.406L205.397 117.672L203.048 119.572L193.801 114.523L194.024 118.53L187.489 114.96L187.335 118.646L188.9 125.135L183.351 121.686L183.162 126.26L180.946 127.76L178.254 128.338L175.455 128.536L172.811 128.915L168.931 125.533L168.928 133.891L166.721 136.245L165.005 141.666L159.864 128.923L157.291 127.911L155.96 140.783L153.108 141.963L150.172 134.205L147.631 132.281L144.283 142.038L142.147 135.268L140.251 130.303L138.294 127.501L135.827 127.516L133.136 128.105L130.004 129.638L125.303 134.623L122.791 133.31L120.659 131.257L118.359 129.674L117.513 125.703L113.648 126.793L116.58 117.951L110.591 121.746L110.303 117.968L111.164 113.268L105.879 115.184L98.8115 118.173L103.617 110.319L101.992 108.387L103.674 104.081L98.6421 104.553L89.2074 107.224L90.439 103.22L95.9711 97.3853L84.1829 99.8418L88.2137 95.0683L93.8019 90.2449L85.4818 90.1509L91.5617 85.7387L84.9684 84.5641L93.9132 80.2911L87.4556 78.7135L88.433 76.0127L91.6404 73.3187L91.1102 70.8928L91.115 68.4454L91.5061 66.0238L92.9479 63.7491L86.3924 60.2481L89.763 58.2214L85.2716 54.4574L81.2883 50.3868L91.8568 52.6159L85.2721 45.5663L87.3856 43.3491L96.6562 44.7343L87.6735 37.0633L94.9409 39.2685L92.3836 33.1319L100.447 37.1838L97.4095 29.8232L106.717 34.0919L103.884 28.2806L99.5302 20.2479L109.7 26.9238L107.05 19.9763L111.981 21.8187L109.583 14.048L114.525 16.327L113.262 8.95828L118.549 12.457L121.924 13.1056L123.407 9.87325L125.183 6.85102L129.069 9.41889L133.131 13.6584L134.231 7.94543L135.907 2.84423L140.365 12.1657L141.611 2.17492L145.212 11.1116L147.455 5.19044L150.172 13.3139L152.627 11.6379L155.036 12.2919L158.631 3.00976L161.995 0L162.824 10.5742L167.688 1.71239L166.431 16.2963L169.796 13.7347L174.624 8.23187L175.822 12.4186L176.442 17.1503L178.758 18.0639L185.853 11.0219L185.102 17.4277L190.575 14.3133L186.722 23.9289L187.447 26.8782L191.338 26.1748L194.904 26.1628L199.434 25.5453L196.736 31.4603L202.9 29.8534L203.012 33.1679L198.714 39.1883L206.486 37.3387L202.674 42.4869L212.028 40.6512L216.325 41.8723L216.702 44.932L210.375 50.2256L219.308 50.3129L215.464 54.3595L212.927 57.7325L208.085 61.2201L216.25 62.6571L212.219 65.747L214.05 68.2491L211.285 70.8928Z" fill="#9CDD03"/>
<path d="M215.404 90.3126L210.921 86.279L213.268 84.1242L210.627 80.9858L220.169 79.6117L216.446 76.3832L211.22 73.4204L211.285 70.8928L214.05 68.2492L212.219 65.747L216.25 62.6571L208.085 61.2201L212.927 57.7325L215.464 54.3595L219.308 50.3129L210.375 50.2256L216.702 44.932L216.325 41.8723L212.028 40.6513L202.674 42.487L206.486 37.3387L200.681 38.7206L202.382 38.793L191.429 44.089L198.752 45.3845L194.637 48.6691L202.537 50.6037L198.043 53.6725L205.014 56.3742L199.296 59.1129L197.005 61.6755L199.017 64.608L200.697 67.6849L196.498 69.6991L190.774 71.0065L195.11 74.8852L198.625 78.9448L188.338 77.9794L196.27 84.1818L186.752 82.6805L190.681 87.6464L182.315 85.8044L182.491 88.772L180.694 90.5016L186.811 98.3545L187.664 102.787L178.166 98.0671L183.271 106.792L171.404 98.2216L171.873 102.425L174.114 109.394L169.907 108.27L165.528 106.371L163.555 107.889L165.951 117.595L160.842 113.66L160.702 119.954L154.432 111.709L151.529 110.816L150.133 114.515L148.312 117.581L146.514 121.786L142.826 116.432L141.037 122.546L138.136 120.939L135.179 114.158L132.774 121.777L130.315 115.862L127.084 124.831L123.829 127.89L121.011 126.641L119.72 118.493L113.648 126.793L117.513 125.703L118.359 129.674L120.66 131.257L122.791 133.31L125.303 134.623L130.005 129.638L133.136 128.105L135.827 127.517L138.294 127.501L140.252 130.303L142.147 135.268L144.283 142.038L147.631 132.281L150.172 134.205L153.108 141.963L155.96 140.783L157.291 127.911L159.864 128.923L165.005 141.666L166.721 136.245L168.928 133.891L168.931 125.534L172.811 128.915L175.455 128.536L178.254 128.338L180.946 127.76L183.162 126.26L183.351 121.686L188.901 125.135L187.335 118.647L187.489 114.96L194.024 118.53L193.801 114.523L203.048 119.572L205.397 117.672L204.788 113.406L203.661 109.084L204.97 106.695L209.057 105.985L206.614 101.436L214.004 102.104L212.224 98.1136L204.006 91.8969L205.129 89.7604L215.404 90.3126Z" fill="#8FCC05"/>
</svg>
