<svg width="301" height="710" viewBox="0 0 301 710" fill="none" xmlns="http://www.w3.org/2000/svg">
<path d="M301 603.168V623.031L151.396 709.971V690.109L301 603.168Z" fill="#86BC06"/>
<path d="M151.396 690.109V709.971L0.817017 623.034V603.172L151.396 690.109Z" fill="#8FCC05"/>
<path d="M301 603.168L151.396 690.109L0.817017 603.172L150.423 516.233L301 603.168Z" fill="#9CDD03"/>
<path d="M252.295 597.813C254.019 603.825 250.187 608.852 244.176 610.576C238.164 612.3 231.894 608.824 230.17 602.813C228.446 596.801 232.412 591.665 238.423 589.941C244.435 588.217 250.572 591.802 252.295 597.813Z" fill="#FB6D30"/>
<path d="M239.476 594.155C239.466 594.158 239.457 594.16 239.447 594.163C238.84 594.32 238.221 593.956 238.063 593.35C238.049 593.297 237.051 589.617 234.557 588.607C233.976 588.371 233.695 587.709 233.931 587.127C234.166 586.546 234.829 586.265 235.41 586.501C238.975 587.944 240.211 592.582 240.262 592.779C240.417 593.376 240.066 593.986 239.476 594.155V594.155Z" fill="#5B9617"/>
<path d="M102.588 577.519C101.287 583.636 95.5435 586.276 89.4267 584.976C83.3098 583.676 79.4051 577.663 80.7053 571.546C82.0055 565.429 87.9184 562.756 94.0352 564.056C100.152 565.356 103.888 571.402 102.588 577.519Z" fill="#FB6D30"/>
<path d="M92.9862 568.271C92.9764 568.269 92.9666 568.267 92.9568 568.264C92.3471 568.118 91.9714 567.506 92.1165 566.896C92.129 566.843 92.9753 563.125 91.2481 561.063C90.8453 560.582 90.9084 559.866 91.3894 559.462C91.8706 559.06 92.5871 559.123 92.9899 559.604C95.46 562.552 94.3739 567.227 94.3267 567.425C94.1825 568.025 93.5864 568.399 92.9862 568.271V568.271Z" fill="#5B9617"/>
<path d="M159.995 489.354C160.051 487.973 159.168 486.58 157.343 485.527C153.817 483.491 148.119 483.491 144.616 485.527C142.869 486.542 141.999 487.87 142 489.2C142 489.196 142 489.191 142 489.187V601.77C141.997 603.113 142.882 604.457 144.657 605.482C148.184 607.518 153.881 607.518 157.384 605.482C159.125 604.471 159.997 603.147 160 601.822V489.238C160 489.276 159.996 489.315 159.995 489.354Z" fill="#FFA834"/>
<path d="M54.5931 68.3131L68.2469 66.6422L74.7647 77.3367L87.0096 78.1054L95.712 85.0045L105.725 89.6327L115.465 94.7336L123.413 102.941L132.28 109.561L142.846 113.235L151.499 119.928L151.682 120.07L159.277 111.195L162.971 109.428L169.182 106.458L169.618 106.411L181.099 105.198L190.451 99.5203L200.596 95.2142L209.955 89.5585L220.16 85.3608L226.699 74.856L236.775 70.4325L240.827 66.5218L244.879 62.6131L253.802 56.2067L258.335 55.1821L248.634 53.6628L240 48.0411L230.747 43.4922L222.89 36.5258L212.427 34.0773L202.839 30.1114L197.682 18.4716L185.783 18.5028L179.895 8.11641L168.166 7.85449L160.365 0L150.975 1.44506L143.504 3.95384L133.689 7.44004L122.724 8.95033L115.811 17.431L107.652 23.7612L99.2755 29.722L87.5896 29.9839L78.1716 34.1565L71.5194 43.0968L62.1516 47.3537L51.6197 49.6247L42.84 57.0497L44.842 60.8781L45.6247 61.8535L54.5931 68.3131Z" fill="#9CDD03"/>
<path d="M244.879 62.6131L253.802 56.2067L258.335 55.1821L261.95 55.7481L260.907 67.9006L253.595 77.6488L255.39 87.3698L255.379 97.0968L252.898 106.827L262 116.529L260.128 126.255L257.964 135.982L259.547 145.701L260.86 155.423L255.489 165.158L258 170.5L261.5 174L261.95 180.748L260.907 192.901L253.595 202.649L255.39 212.37L255.379 222.097L252.898 231.827L262 241.529L260.129 251.255L257.964 260.982L259.547 270.701L260.86 280.423L255.489 290.158L260.967 299.868L259.882 307.424L261.95 307.748L260.907 319.901L253.595 329.649L255.39 339.37L255.379 349.097L252.898 358.827L262 368.529L260.129 378.255L257.964 387.982L259.547 397.701L260.86 407.423L255.489 417.158L260.967 426.868L259.571 436.592L254.828 444.313L249.676 452.039L240.037 455.845L233.806 465.503L224.493 469.862L211.839 468.464L206.203 479.14L195.735 481.501L189.447 491.052L180.858 496.647L168.856 496.372L161.391 503.904L154.071 508.121L155.335 502.254L154.357 491.512L147.427 480.793L155.061 470.037L148.303 459.317L154.494 448.571L154.488 437.839L147.262 427.123L153.6 416.375L150.992 405.646L150.273 394.913L149.878 384.183L151.69 373.446L153 373V370.53H154.357L154.722 368.518L154.357 364.512L147.427 353.793L155.061 343.037L148.303 332.317L154.494 321.571L154.488 310.839L147.262 300.123L153.6 289.375L150.992 278.646L150.273 267.913L149.878 257.183L151.69 246.446L151.181 244.683L151.499 244.928L151.682 245.07L154.557 241.711L154.357 239.512L147.427 228.793L155.061 218.037L148.303 207.317L154.494 196.571L154.488 185.839L147.262 175.123L153.6 164.375L150.992 153.646L150.273 142.913L149.878 132.183L151.69 121.446L151.181 119.683L151.499 119.928L151.682 120.07L159.277 111.195L162.971 109.428L165.848 109.355L169.618 106.411L181.099 105.198L190.451 99.5203L200.596 95.2142L209.955 89.5584L220.16 85.3607L226.699 74.856L236.775 70.4325L244.879 62.6131Z" fill="#86BC06"/>
<path d="M147.427 228.793L154.357 239.512L155.335 250.254L154.071 256.121L151.966 257.335L149.924 256.908L149.878 257.183L150.273 267.913L150.992 278.646L153.6 289.375L147.262 300.123L154.488 310.839L154.494 321.571L148.303 332.317L155.061 343.037L147.427 353.793L154.357 364.512L155.335 375.254L154.071 381.121L151.966 382.335L150.25 381.976L149.878 384.183L150.273 394.913L150.992 405.646L153.6 416.375L147.262 427.123L154.488 437.839L154.494 448.571L148.303 459.317L155.061 470.037L147.427 480.793L154.357 491.512L155.335 502.254L154.071 508.121L151.966 509.335L140.697 506.98L131.95 501.541L125.423 492.269L116.358 487.386L107.654 481.884L96.8129 480.088L89.2886 472.55L80.0081 468.051L71.5545 462.118L61.6237 458.744L54.2429 450.951L48.7296 444.106L47.0959 436.586L40 426.87L48.9875 417.126L42.6955 407.412L41.2865 397.69L48.6001 387.952L46.2258 378.237L40.0763 368.528L42.9373 358.798L49.2715 349.061L47.8094 339.341L47.0628 329.619L48.5118 319.895L46.5 317L47.0959 315L48 313L47.0959 309.586L40 299.87L48.9875 290.126L42.6955 280.412L41.2865 270.69L48.6001 260.952L46.2258 251.237L40.0763 241.528L42.9373 231.798L49.2715 222.061L47.8094 212.341L47.0628 202.619L48.5118 192.895L44.842 185.878L45.6247 186.853L47.9527 188.53L47.0958 184.586L40 174.87L48.9875 165.126L42.6954 155.412L41.2865 145.69L48.6001 135.952L46.2258 126.237L40.0763 116.528L42.9373 106.798L49.2715 97.0607L47.8093 87.3407L47.0627 77.6186L48.5118 67.8946L44.842 60.8781L45.6247 61.8535L54.5931 68.3131L68.2469 66.6422L74.7647 77.3367L87.0095 78.1053L95.712 85.0045L105.725 89.6327L115.465 94.7335L123.413 102.941L132.28 109.561L142.846 113.235L151.181 119.683L151.69 121.446L149.878 132.183L150.273 142.913L150.991 153.646L153.6 164.375L147.262 175.123L154.488 185.839L154.494 196.571L148.303 207.317L155.061 218.037L147.427 228.793Z" fill="#8FCC05"/>
<path d="M75.256 286.799C76.8653 292.411 73.2874 297.105 67.6751 298.715C62.0625 300.324 56.2081 297.079 54.5987 291.466C52.9894 285.854 56.6919 281.058 62.3043 279.449C67.9168 277.839 73.6466 281.186 75.256 286.799Z" fill="#FB6D30"/>
<path d="M159.256 372.389C160.865 378.001 157.287 382.695 151.675 384.305C146.063 385.914 140.208 382.669 138.599 377.056C136.989 371.444 140.692 366.648 146.304 365.039C151.917 363.429 157.647 366.776 159.256 372.389Z" fill="#FB6D30"/>
<path d="M257.256 251.389C258.865 257.001 255.287 261.695 249.675 263.305C244.063 264.914 238.208 261.669 236.599 256.056C234.989 250.444 238.692 245.648 244.304 244.039C249.917 242.429 255.647 245.776 257.256 251.389Z" fill="#FB6D30"/>
<path d="M264.256 175.389C265.865 181.001 262.287 185.695 256.675 187.305C251.063 188.914 245.208 185.669 243.599 180.056C241.989 174.444 245.692 169.648 251.304 168.039C256.917 166.429 262.647 169.776 264.256 175.389Z" fill="#FB6D30"/>
<path d="M162.256 286.389C163.865 292.001 160.287 296.695 154.675 298.305C149.063 299.914 143.208 296.669 141.599 291.056C139.989 285.444 143.692 280.648 149.304 279.039C154.917 277.429 160.647 280.776 162.256 286.389Z" fill="#FB6D30"/>
<path d="M257.256 445.389C258.865 451.001 255.287 455.695 249.675 457.305C244.063 458.914 238.208 455.669 236.599 450.056C234.989 444.444 238.692 439.648 244.304 438.039C249.917 436.429 255.647 439.776 257.256 445.389Z" fill="#FB6D30"/>
<path d="M183.256 489.389C184.865 495.001 181.287 499.695 175.675 501.305C170.063 502.914 164.208 499.669 162.599 494.056C160.989 488.444 164.692 483.648 170.304 482.039C175.917 480.429 181.647 483.776 183.256 489.389Z" fill="#FB6D30"/>
<path d="M233.256 365.389C234.865 371.001 231.287 375.695 225.675 377.305C220.063 378.914 214.208 375.669 212.599 370.056C210.989 364.444 214.692 359.648 220.304 358.039C225.917 356.429 231.647 359.776 233.256 365.389Z" fill="#FB6D30"/>
<path d="M121.256 221.389C122.865 227.001 119.287 231.695 113.675 233.305C108.063 234.914 102.208 231.669 100.599 226.056C98.9894 220.444 102.692 215.648 108.304 214.039C113.917 212.429 119.647 215.776 121.256 221.389Z" fill="#FB6D30"/>
<path d="M193.256 145.389C194.865 151.001 191.287 155.695 185.675 157.305C180.063 158.914 174.208 155.669 172.599 150.056C170.989 144.444 174.692 139.648 180.304 138.039C185.917 136.429 191.647 139.776 193.256 145.389Z" fill="#FB6D30"/>
<path d="M209.256 228.389C210.865 234.001 207.287 238.695 201.675 240.305C196.063 241.914 190.208 238.669 188.599 233.056C186.989 227.444 190.692 222.648 196.304 221.039C201.917 219.429 207.647 222.776 209.256 228.389Z" fill="#FB6D30"/>
<path d="M90.256 402.389C91.8653 408.001 88.2874 412.695 82.6751 414.305C77.0625 415.914 71.2081 412.669 69.5987 407.056C67.9894 401.444 71.6919 396.648 77.3043 395.039C82.9168 393.429 88.6466 396.776 90.256 402.389Z" fill="#FB6D30"/>
<path d="M56.256 124.389C57.8653 130.001 54.2874 134.695 48.6751 136.305C43.0625 137.914 37.2081 134.669 35.5987 129.056C33.9894 123.444 37.6919 118.648 43.3043 117.039C48.9168 115.429 54.6466 118.776 56.256 124.389Z" fill="#FB6D30"/>
<path d="M128.256 94.389C129.865 100.001 126.287 104.695 120.675 106.305C115.063 107.914 109.208 104.669 107.599 99.0564C105.989 93.4441 109.692 88.6481 115.304 87.0388C120.917 85.4294 126.647 88.7765 128.256 94.389Z" fill="#FB6D30"/>
<path d="M112.256 20.389C113.865 26.0014 110.287 30.6954 104.675 32.3048C99.0625 33.9141 93.2081 30.669 91.5987 25.0564C89.9894 19.4441 93.6919 14.6481 99.3043 13.0388C104.917 11.4294 110.647 14.7765 112.256 20.389Z" fill="#FB6D30"/>
<path d="M233.256 72.389C234.865 78.0014 231.287 82.6954 225.675 84.3048C220.063 85.9141 214.208 82.669 212.599 77.0564C210.989 71.4441 214.692 66.6481 220.304 65.0388C225.917 63.4294 231.647 66.7765 233.256 72.389Z" fill="#FB6D30"/>
<path d="M190.256 35.389C191.865 41.0014 188.287 45.6954 182.675 47.3048C177.063 48.9141 171.208 45.669 169.599 40.0564C167.989 34.4441 171.692 29.6481 177.304 28.0388C182.917 26.4294 188.647 29.7765 190.256 35.389Z" fill="#FB6D30"/>
<path d="M81.256 459.389C82.8653 465.001 79.2874 469.695 73.6751 471.305C68.0625 472.914 62.2081 469.669 60.5987 464.056C58.9894 458.444 62.6919 453.648 68.3043 452.039C73.9168 450.429 79.6466 453.776 81.256 459.389Z" fill="#FB6D30"/>
</svg>
