<svg width="301" height="585" viewBox="0 0 301 585" fill="none" xmlns="http://www.w3.org/2000/svg">
<path d="M301 478.168V498.031L151.396 584.971V565.109L301 478.168Z" fill="#86BC06"/>
<path d="M151.396 565.109V584.971L0.816956 498.034V478.172L151.396 565.109Z" fill="#8FCC05"/>
<path d="M301 478.168L151.396 565.109L0.816986 478.172L150.423 391.233L301 478.168Z" fill="#9CDD03"/>
<path d="M159.995 364.354C160.051 362.973 159.168 361.58 157.343 360.527C153.817 358.491 148.119 358.491 144.616 360.527C142.869 361.542 141.999 362.87 142 364.2C142 364.196 142 364.191 142 364.187V476.77C141.997 478.113 142.882 479.457 144.657 480.482C148.184 482.518 153.881 482.518 157.384 480.482C159.125 479.471 159.997 478.147 160 476.822V364.238C160 364.276 159.996 364.315 159.995 364.354Z" fill="#FFA834"/>
<path d="M54.5931 68.3131L68.2469 66.6422L74.7647 77.3367L87.0095 78.1054L95.712 85.0045L105.725 89.6327L115.465 94.7336L123.413 102.941L132.28 109.561L142.846 113.235L151.499 119.928L151.682 120.07L159.277 111.195L162.971 109.428L169.182 106.458L169.618 106.411L181.099 105.198L190.451 99.5203L200.596 95.2142L209.955 89.5585L220.16 85.3608L226.699 74.856L236.775 70.4325L240.827 66.5218L244.879 62.6131L253.802 56.2067L258.335 55.1821L248.634 53.6628L240 48.0411L230.747 43.4922L222.89 36.5258L212.427 34.0773L202.839 30.1114L197.682 18.4716L185.783 18.5028L179.895 8.11641L168.166 7.85449L160.365 0L150.975 1.44506L143.504 3.95384L133.689 7.44004L122.724 8.95033L115.811 17.431L107.652 23.7612L99.2755 29.722L87.5896 29.9839L78.1716 34.1565L71.5193 43.0968L62.1515 47.3537L51.6197 49.6247L42.8399 57.0497L44.842 60.8781L45.6247 61.8535L54.5931 68.3131Z" fill="#9CDD03"/>
<path d="M244.879 62.6131L253.802 56.2067L258.335 55.1821L261.95 55.7481L260.907 67.9006L253.595 77.6488L255.39 87.3698L255.379 97.0968L252.898 106.827L262 116.529L260.128 126.255L257.964 135.982L259.547 145.701L260.86 155.423L255.489 165.158L260.967 174.868L259.882 182.424L261.95 182.748L260.907 194.901L253.595 204.649L255.39 214.37L255.379 224.097L252.898 233.827L262 243.529L260.128 253.255L257.964 262.982L259.547 272.701L260.86 282.423L255.489 292.158L260.967 301.868L259.571 311.592L254.828 319.313L249.676 327.039L240.037 330.845L233.806 340.503L224.493 344.862L211.838 343.464L206.203 354.14L195.735 356.501L189.447 366.052L180.858 371.647L168.856 371.372L161.391 378.904L154.071 383.121L155.335 377.254L154.357 366.512L147.427 355.793L155.061 345.037L148.303 334.317L154.494 323.571L154.488 312.839L147.262 302.123L153.6 291.375L150.991 280.646L150.273 269.913L149.878 259.183L151.69 248.446L153 248V245.53H154.357L154.722 243.518L154.357 239.512L147.427 228.793L155.061 218.037L148.303 207.317L154.494 196.571L154.488 185.839L147.262 175.123L153.6 164.375L150.991 153.646L150.273 142.913L149.878 132.183L151.69 121.446L151.181 119.683L151.499 119.928L151.682 120.07L159.277 111.195L162.971 109.428L165.848 109.355L169.618 106.411L181.099 105.198L190.451 99.5203L200.596 95.2142L209.955 89.5584L220.16 85.3607L226.699 74.856L236.775 70.4325L244.879 62.6131Z" fill="#86BC06"/>
<path d="M147.427 228.793L154.357 239.512L155.335 250.254L154.071 256.121L151.966 257.335L150.25 256.976L149.878 259.183L150.273 269.913L150.991 280.646L153.6 291.375L147.262 302.123L154.488 312.839L154.494 323.571L148.303 334.317L155.061 345.037L147.427 355.793L154.357 366.512L155.335 377.254L154.071 383.121L151.966 384.335L140.697 381.98L131.95 376.541L125.423 367.269L116.358 362.386L107.654 356.884L96.8129 355.088L89.2885 347.55L80.008 343.051L71.5544 337.118L61.6237 333.744L54.2429 325.951L48.7296 319.106L47.0958 311.586L40 301.87L48.9875 292.126L42.6954 282.412L41.2865 272.69L48.6001 262.952L46.2258 253.237L40.0763 243.528L42.9373 233.798L49.2715 224.061L47.8093 214.341L47.0627 204.619L48.5118 194.895L46.5 192L47.0958 190L48 188L47.0958 184.586L40 174.87L48.9875 165.126L42.6954 155.412L41.2865 145.69L48.6001 135.952L46.2258 126.237L40.0763 116.528L42.9373 106.798L49.2715 97.0607L47.8093 87.3407L47.0627 77.6186L48.5118 67.8946L44.842 60.8781L45.6247 61.8535L54.5931 68.3131L68.2469 66.6422L74.7647 77.3367L87.0095 78.1053L95.712 85.0045L105.725 89.6327L115.465 94.7335L123.413 102.941L132.28 109.561L142.846 113.235L151.181 119.683L151.69 121.446L149.878 132.183L150.273 142.913L150.991 153.646L153.6 164.375L147.262 175.123L154.488 185.839L154.494 196.571L148.303 207.317L155.061 218.037L147.427 228.793Z" fill="#8FCC05"/>
</svg>
