<svg width="229" height="40" viewBox="0 0 229 40" fill="none" xmlns="http://www.w3.org/2000/svg">
<path d="M115.974 -96L15.5887 -38.236V-29.1851C12.6838 -30.3259 9.63359 -31.0748 6.70348 -31.0015C3.57003 -30.9146 1.09889 -28.3127 1.18604 -25.1876C1.27319 -22.0645 3.907 -19.6093 7.01915 -19.6884C9.28887 -19.754 12.4824 -18.4202 15.5887 -16.6367V-13.9112C12.4359 -13.751 9.27726 -13.2723 6.54081 -12.2589C3.60101 -11.1703 2.104 -7.91399 3.19432 -4.9839C4.0445 -2.70237 6.21352 -1.2933 8.5181 -1.2933C9.17461 -1.2933 9.84275 -1.40719 10.4954 -1.64847C11.8762 -2.15998 13.6502 -2.4418 15.5887 -2.56726V0.795197L8.17144 4.81586C5.41563 6.30986 4.3989 9.74567 5.89591 12.4905C6.92619 14.3782 8.87444 15.4476 10.8885 15.4476C11.8045 15.4476 12.7341 15.2256 13.5959 14.7585L15.5887 13.6776V17.2755L15.4764 17.2176C12.7051 15.7525 9.26951 16.8026 7.79961 19.5648C6.35489 22.2787 7.35419 25.6315 10.0209 27.1351C8.29926 27.8802 6.3975 28.5558 4.36404 29.0402C1.31192 29.7641 -0.570475 32.8158 0.155759 35.8559C0.775478 38.454 3.10524 40.2047 5.6732 40.2047C6.10894 40.2047 6.55049 40.1545 6.99204 40.0483C10.1487 39.2994 13.0459 38.2204 15.5868 37.0507V40.5C12.4243 43.1734 8.68852 45.0901 7.1431 46.4374C4.78429 48.495 4.54415 52.0698 6.60859 54.4228C7.73183 55.7006 9.30437 56.3549 10.8847 56.3549C12.2112 56.3549 13.5436 55.8936 14.6204 54.9536C14.8799 54.7277 15.2072 54.4459 15.5868 54.1197V59.3429C12.1725 60.3814 8.76018 61.3117 7.68341 61.4256C4.60418 61.4913 2.12918 63.9986 2.12918 67.0812C2.12918 70.2082 4.67196 72.7406 7.80736 72.7406C8.57039 72.7406 9.64909 72.5824 10.9098 72.3218C9.31405 73.3409 7.8519 74.4894 6.68218 75.773C4.57126 78.0854 4.74362 81.6641 7.06369 83.7661C8.15014 84.7524 9.5174 85.2369 10.8808 85.2369C12.4243 85.2369 13.9639 84.6135 15.0833 83.3839C16.5183 81.8127 19.6595 80.2512 22.8975 79.0235L23.5695 79.4096C21.904 80.1238 20.3644 80.9982 19.0746 82.0694C16.6655 84.0691 16.3421 87.6381 18.3484 90.0393C19.4716 91.3828 21.0868 92.0757 22.7135 92.0738C23.9956 92.0738 25.2834 91.6453 26.3447 90.7632C28.3549 89.0935 33.516 88.1361 38.0942 87.7675L39.1477 88.3736C38.4118 88.5531 37.6585 88.7326 36.8703 88.9044C33.8065 89.5742 31.8699 92.593 32.5419 95.6447C33.1248 98.2891 35.474 100.092 38.0826 100.092C38.4854 100.092 38.894 100.05 39.3046 99.9588C45.0506 98.7022 49.6404 97.2043 52.5995 96.1138L56.6955 98.4725C54.6097 99.5921 52.5608 100.789 50.7539 102.009C48.1569 103.761 47.4771 107.28 49.2356 109.867C50.3337 111.482 52.1212 112.353 53.9416 112.353C55.0377 112.353 56.1455 112.036 57.1215 111.378C60.406 109.16 64.8254 106.95 68.4992 105.263L71.9774 107.265L69.971 108.737C67.4457 110.59 66.9034 114.132 68.7626 116.649C69.8742 118.155 71.5959 118.954 73.3408 118.954C74.5085 118.954 75.6879 118.595 76.7008 117.852L82.714 113.443L83.9709 114.165L80.8936 119.775C79.3869 122.515 80.3978 125.955 83.1498 127.455C84.0135 127.926 84.9469 128.15 85.8688 128.15C87.8771 128.15 89.8234 127.086 90.8556 125.206L93.807 119.827L97.7209 122.077C97.8468 125.274 97.5273 128.26 96.8359 129.171C94.9477 131.665 95.4454 135.214 97.9475 137.096C98.972 137.867 100.173 138.241 101.364 138.241C103.083 138.241 104.784 137.463 105.899 135.99C107.487 133.894 108.341 131.184 108.762 128.432L115.972 132.582L216.357 74.8156V-38.236L115.974 -96Z" fill="#F7BD69"/>
<path d="M225.693 17.731L216.359 13.4536V12.5831C218.574 12.2762 221.132 11.9191 224.115 11.5002C227.219 11.0621 229.38 8.19954 228.943 5.10538C228.505 2.00929 225.625 -0.144842 222.527 0.29332C220.495 0.578993 218.402 0.872388 216.359 1.1542V-7.58588L224.804 -9.86161C227.831 -10.6781 229.621 -13.7858 228.801 -16.8027C227.982 -19.8197 224.862 -21.6032 221.839 -20.7867L216.359 -19.3101V-21.9198C218.475 -24.7726 221.876 -28.6601 226.297 -31.3721C228.968 -33.0109 229.801 -36.4949 228.156 -39.1567C226.512 -41.8185 223.017 -42.6485 220.344 -41.0117C218.93 -40.143 217.602 -39.1934 216.359 -38.2051V-38.2341L115.974 -4V40.6219L106.141 45.9201C103.626 47.7866 103.105 51.3324 104.978 53.8398C106.093 55.3299 107.803 56.1194 109.536 56.1194C110.716 56.1194 111.905 55.7546 112.923 54.9979L115.974 52.7338V57.2949C111.589 61.7422 105.696 67.4846 103.792 68.8126C101.224 70.6058 100.599 74.1342 102.398 76.6937C103.502 78.2669 105.262 79.1084 107.054 79.1084C108.177 79.1084 109.314 78.7764 110.303 78.0854C110.723 77.792 111.217 77.4079 111.762 76.9582C110.199 79.7917 108.217 83.824 106.934 88.0917C106.033 91.0855 107.735 94.2395 110.739 95.139C111.283 95.3011 111.833 95.3783 112.373 95.3783C113.704 95.3783 114.969 94.8958 115.974 94.0716V100.661C115.474 101.982 113.654 106 108.841 109.807C106.385 111.751 105.975 115.31 107.923 117.757C109.044 119.166 110.702 119.9 112.375 119.9C113.611 119.9 114.856 119.498 115.9 118.672C115.925 118.653 115.948 118.634 115.974 118.613V120.408L108.7 135.075C107.311 137.878 108.463 141.271 111.273 142.655C112.083 143.055 112.941 143.244 113.785 143.244C115.877 143.244 117.891 142.086 118.879 140.09L125.248 127.246L127.258 126.09C127.146 128.078 127.239 130.049 127.667 131.831C128.293 134.425 130.618 136.17 133.184 136.17C133.622 136.17 134.068 136.12 134.513 136.012C137.563 135.282 139.442 132.228 138.71 129.188C138.158 126.903 139.163 122.185 140.288 118.591L144.157 116.366C144.601 116.954 144.982 117.657 145.197 118.489C145.862 121.039 148.164 122.73 150.69 122.73C151.162 122.73 151.64 122.67 152.119 122.546C155.153 121.763 156.978 118.674 156.19 115.65C155.703 113.777 154.937 112.131 154.013 110.695L155.405 109.894C157.646 111.355 160.322 112.903 162.867 113.87C163.531 114.121 164.215 114.241 164.887 114.241C167.174 114.241 169.332 112.853 170.193 110.596C171.311 107.676 169.839 104.406 166.909 103.292C166.903 103.29 166.895 103.288 166.889 103.285L178.248 96.7488L178.685 99.3739C179.148 102.142 181.554 104.103 184.278 104.103C184.588 104.103 184.904 104.076 185.22 104.024C188.312 103.51 190.402 100.596 189.887 97.5112L188.748 90.7052L194.573 87.3544C194.794 88.6592 194.839 89.7131 194.641 90.2806C192.662 92.5795 192.85 96.0481 195.102 98.1212C196.194 99.1249 197.575 99.621 198.952 99.621C200.482 99.621 202.006 99.0091 203.126 97.8008C207.059 93.5523 206.408 86.8525 204.888 81.4189L208.122 79.5582L212.015 84.1676C213.138 85.4975 214.743 86.1808 216.36 86.1808C217.652 86.1808 218.952 85.7446 220.015 84.8509C222.414 82.8376 222.72 79.2686 220.702 76.8771L216.359 71.735V71.0671L217.546 71.706C218.404 72.1693 219.329 72.3874 220.241 72.3874C222.259 72.3874 224.213 71.3122 225.24 69.4187C226.731 66.67 225.705 63.2362 222.945 61.7499L216.359 58.2021V54.5849L216.434 54.6524C217.521 55.6349 218.884 56.1194 220.243 56.1194C221.791 56.1194 223.332 55.4921 224.454 54.2587C226.559 51.9424 226.383 48.3637 224.059 46.2656L216.359 39.3129V25.9113L220.948 28.0133C221.717 28.3666 222.523 28.5326 223.317 28.5326C225.465 28.5326 227.521 27.3107 228.478 25.2377C229.789 22.3964 228.542 19.0378 225.693 17.731Z" fill="#F8DB8F"/>
<path d="M69.8394 30.9143C69.4553 30.9143 69.0635 30.8506 68.6774 30.7155C66.8321 30.0746 65.8573 28.0575 66.5001 26.2141C69.8066 16.7058 80.0523 12.2778 80.4866 12.0925C82.2875 11.332 84.3606 12.1736 85.123 13.9726C85.8835 15.7677 85.0458 17.8389 83.2526 18.6032C83.1194 18.6611 75.4352 22.0545 73.1807 28.5382C72.673 29.9974 71.3045 30.9143 69.8394 30.9143Z" fill="#F8DB8F"/>
<path d="M87.5242 59.2075C86.092 59.2075 84.7447 58.3312 84.2119 56.9125C83.5267 55.0826 84.4532 53.0443 86.2811 52.3591C92.7532 49.9308 94.255 43.2136 94.3167 42.9299C94.7221 41.0266 96.5886 39.7971 98.4938 40.1928C100.399 40.5866 101.628 42.4319 101.248 44.3389C101.161 44.7771 98.9763 55.1521 88.7654 58.9817C88.3562 59.1361 87.9373 59.2075 87.5242 59.2075Z" fill="#F8DB8F"/>
<path d="M29.876 27.023C28.5596 27.023 27.2934 26.2837 26.6853 25.0175C25.8399 23.2552 26.5811 21.1435 28.3434 20.2961C37.8112 15.7504 38.6316 9.28218 38.6625 9.00809C38.813 7.06048 40.5136 5.63404 42.4592 5.7846C44.4068 5.93515 45.8603 7.66464 45.7098 9.61225C45.6769 10.0446 44.735 20.271 31.4048 26.6736C30.9126 26.911 30.3895 27.023 29.876 27.023V27.023Z" fill="#F8DB8F"/>
<path d="M139.625 35.8611C139.306 35.8611 138.984 35.8186 138.663 35.7279C128.149 32.7611 123.613 24.5673 123.426 24.2198C122.498 22.5019 123.137 20.3555 124.855 19.427C126.567 18.5005 128.703 19.1317 129.638 20.8361C129.794 21.116 133.064 26.7986 140.582 28.918C142.462 29.4488 143.557 31.4022 143.028 33.2823C142.588 34.8419 141.169 35.8611 139.625 35.8611Z" fill="#F7BD69"/>
<path d="M172.098 27.455C170.558 27.455 169.143 26.4417 168.699 24.8878C168.143 23.0425 161.563 18.1706 154.894 14.6692C153.164 13.762 152.498 11.6232 153.406 9.89376C154.313 8.16427 156.451 7.49833 158.181 8.40554C161.814 10.3126 173.8 16.999 175.499 22.9441C176.036 24.8222 174.949 26.7795 173.071 27.3161C172.747 27.4107 172.418 27.455 172.098 27.455V27.455Z" fill="#F7BD69"/>
<path d="M201.071 16.3491C199.926 16.3491 198.807 15.7971 198.125 14.774C195.52 10.8672 191.532 6.86392 191.493 6.82531C190.111 5.44326 190.111 3.20419 191.493 1.82214C192.875 0.442018 195.112 0.442018 196.494 1.82214C196.678 2.00551 201.021 6.36592 204.009 10.8499C205.094 12.4751 204.653 14.6717 203.028 15.7546C202.426 16.158 201.745 16.3491 201.071 16.3491V16.3491Z" fill="#F7BD69"/>
<path d="M206.014 58.791C205.414 58.791 204.804 58.6385 204.246 58.3142C196.267 53.6933 194.161 44.3741 194.074 43.9803C193.659 42.0713 194.871 40.1874 196.78 39.7724C198.683 39.3574 200.563 40.5638 200.984 42.4631C201.017 42.6098 202.588 49.1804 207.79 52.1935C209.481 53.1721 210.058 55.3359 209.08 57.0268C208.423 58.1579 207.236 58.791 206.014 58.791V58.791Z" fill="#F7BD69"/>
<path d="M177.727 60.9142C176.37 60.9142 175.079 60.1305 174.492 58.8122C172.376 54.0503 166.858 47.7114 164.908 45.6711C163.561 44.2582 163.613 42.0191 165.026 40.6699C166.439 39.3206 168.678 39.3727 170.025 40.7876C170.346 41.1215 177.912 49.0915 180.956 55.94C181.749 57.7235 180.946 59.814 179.161 60.6073C178.694 60.8158 178.206 60.9142 177.727 60.9142V60.9142Z" fill="#F7BD69"/>
<path d="M222.529 31.2312C217.254 31.2312 208.589 28.8859 207.554 28.6003C205.671 28.081 204.565 26.1334 205.086 24.2514C205.603 22.3695 207.549 21.2615 209.435 21.7807C213.173 22.8115 220.18 24.3615 223.077 24.1414C225.029 23.9928 226.726 25.4482 226.874 27.3958C227.025 29.3434 225.567 31.044 223.62 31.1945C223.276 31.2196 222.913 31.2312 222.529 31.2312V31.2312Z" fill="#F7BD69"/>
</svg>
