<svg width="229" height="129" viewBox="0 0 229 129" fill="none" xmlns="http://www.w3.org/2000/svg">
<g clip-path="url(#clip0)">
<path d="M115.974 0L15.5888 57.764V66.8149C12.6839 65.6741 9.63368 64.9252 6.70357 64.9985C3.57012 65.0854 1.09898 67.6873 1.18613 70.8124C1.27328 73.9355 3.90709 76.3907 7.01924 76.3116C9.28897 76.246 12.4825 77.5798 15.5888 79.3633V82.0888C12.436 82.249 9.27735 82.7277 6.5409 83.7411C3.6011 84.8297 2.10409 88.086 3.19441 91.0161C4.04459 93.2976 6.21361 94.7067 8.51819 94.7067C9.1747 94.7067 9.84284 94.5928 10.4955 94.3515C11.8763 93.84 13.6502 93.5582 15.5888 93.4327V96.7952L8.17153 100.816C5.41572 102.31 4.39899 105.746 5.896 108.49C6.92628 110.378 8.87453 111.448 10.8886 111.448C11.8046 111.448 12.7342 111.226 13.596 110.758L15.5888 109.678V113.275L15.4765 113.218C12.7052 111.753 9.2696 112.803 7.7997 115.565C6.35498 118.279 12.9221 121.996 15.5888 123.5C15.5888 126 15.5869 128 15.5869 129C15.5868 131.5 -0.570385 128.816 0.155849 131.856C0.775568 134.454 3.10533 136.205 5.67329 136.205C6.10903 136.205 6.55058 136.155 6.99213 136.048C10.1488 135.299 13.046 134.22 15.5869 133.051V135.251C12.4244 137.925 8.68861 141.09 7.14319 142.437C4.78438 144.495 4.54424 148.07 6.60868 150.423C7.73192 151.701 9.30446 152.355 10.8847 152.355C12.2113 152.355 13.5437 151.894 14.6205 150.954C14.88 150.728 15.2073 150.446 15.5869 150.12V155.343C12.1726 156.381 8.76027 157.312 7.6835 157.426C4.60427 157.491 2.12927 159.999 2.12927 163.081C2.12927 166.208 4.67206 168.741 7.80745 168.741C8.57048 168.741 9.64918 168.582 10.9099 168.322C9.31414 169.341 7.85199 170.489 6.68227 171.773C4.57135 174.085 4.74371 177.664 7.06379 179.766C8.15023 180.752 9.51749 181.237 10.8809 181.237C12.4244 181.237 13.964 180.613 15.0833 179.384C16.5184 177.813 19.6596 176.251 22.8976 175.024L23.5696 175.41C21.9041 176.124 20.3645 176.998 19.0747 178.069C16.6656 180.069 16.3421 183.638 18.3485 186.039C19.4717 187.383 21.0869 188.076 22.7136 188.074C23.9957 188.074 25.2835 187.645 26.3448 186.763C28.355 185.094 33.5161 184.136 38.0943 183.767L39.1478 184.374C38.4119 184.553 37.6586 184.733 36.8704 184.904C33.8066 185.574 31.87 188.593 32.542 191.645C33.1249 194.289 35.4741 196.092 38.0827 196.092C38.4855 196.092 38.8941 196.05 39.3047 195.959C45.0507 194.702 49.6404 193.204 52.5996 192.114L56.6956 194.473C54.6098 195.592 52.5609 196.789 50.754 198.009C48.157 199.761 47.4772 203.28 49.2357 205.867C50.3338 207.482 52.1213 208.353 53.9417 208.353C55.0378 208.353 56.1456 208.036 57.1216 207.378C60.4061 205.16 64.8255 202.95 68.4993 201.263L71.9775 203.265L69.9711 204.737C67.4458 206.59 66.9035 210.132 68.7627 212.649C69.8743 214.155 71.596 214.954 73.3409 214.954C74.5086 214.954 75.688 214.595 76.7009 213.852L82.7141 209.443L83.971 210.165L80.8937 215.775C79.387 218.515 80.3979 221.955 83.1499 223.455C84.0136 223.926 84.947 224.15 85.8689 224.15C87.8772 224.15 89.8235 223.086 90.8557 221.206L93.8071 215.827L97.721 218.077C97.8469 221.274 97.5274 224.26 96.836 225.171C94.9478 227.665 95.4455 231.214 97.9476 233.096C98.9721 233.867 100.173 234.241 101.364 234.241C103.084 234.241 104.784 233.463 105.899 231.99C107.487 229.894 108.341 227.184 108.762 224.432L115.972 228.582L216.357 170.816V57.764L115.974 0Z" fill="#F7BD69"/>
<path d="M29.8908 111.862C29.6186 111.862 29.3426 111.831 29.0685 111.766C27.1672 111.312 25.9937 109.405 26.4453 107.506C28.4624 99.0378 39.2023 91.1335 40.4202 90.261C42.0069 89.1222 44.217 89.487 45.3559 91.0737C46.4928 92.6622 46.1299 94.8704 44.5432 96.0093C41.8274 97.9627 34.5214 104.13 33.3266 109.143C32.9406 110.768 31.491 111.862 29.8908 111.862Z" fill="#F8DB8F"/>
<path d="M56.7602 123.839C55.4013 123.839 54.1042 123.051 53.5213 121.727C49.1319 111.763 46.8774 104.689 46.7847 104.392C46.1941 102.531 47.2268 100.543 49.0875 99.954C50.9521 99.3633 52.9364 100.394 53.5271 102.255C53.5483 102.324 55.7719 109.289 59.9953 118.874C60.7828 120.663 59.9702 122.75 58.1828 123.538C57.7195 123.742 57.237 123.839 56.7602 123.839V123.839Z" fill="#F8DB8F"/>
<path d="M73.861 124.728C73.1352 124.728 72.4037 124.506 71.7725 124.044C70.1974 122.888 69.8577 120.674 71.012 119.099C75.3376 113.202 87.0329 107.927 88.3532 107.346C90.1387 106.556 92.2272 107.367 93.0147 109.153C93.8042 110.938 92.9954 113.027 91.21 113.816C86.8901 115.725 79.1363 119.983 76.7177 123.284C76.0229 124.228 74.9496 124.728 73.861 124.728V124.728Z" fill="#F8DB8F"/>
<path d="M225.693 113.731L216.359 109.454V108.583C218.574 108.276 221.132 107.919 224.115 107.5C227.219 107.062 229.38 104.2 228.943 101.105C228.505 98.0093 225.625 95.8552 222.527 96.2933C220.495 96.579 218.402 96.8724 216.359 97.1542V88.4141L224.804 86.1384C227.831 85.3219 229.621 82.2142 228.801 79.1973C227.982 76.1803 224.862 74.3968 221.839 75.2133L216.359 76.6899V74.0802C218.475 71.2274 221.876 67.3399 226.297 64.6279C228.968 62.9891 229.801 59.5051 228.156 56.8433C226.512 54.1815 223.017 53.3515 220.344 54.9883C218.93 55.857 217.602 56.8066 216.359 57.7949V57.7659L115.974 115.532V134.622L106.141 141.92C103.626 143.787 103.105 147.332 104.978 149.84C106.093 151.33 107.803 152.119 109.536 152.119C110.716 152.119 111.905 151.755 112.923 150.998L115.974 148.734V153.295C111.589 157.742 105.696 163.485 103.792 164.813C101.224 166.606 100.599 170.134 102.398 172.694C103.502 174.267 105.262 175.108 107.054 175.108C108.177 175.108 109.314 174.776 110.303 174.085C110.723 173.792 111.217 173.408 111.762 172.958C110.199 175.792 108.217 179.824 106.934 184.092C106.033 187.086 107.735 190.239 110.739 191.139C111.283 191.301 111.833 191.378 112.373 191.378C113.704 191.378 114.969 190.896 115.974 190.072V196.661C115.474 197.982 113.654 202 108.841 205.807C106.385 207.751 105.975 211.31 107.923 213.757C109.044 215.166 110.702 215.9 112.375 215.9C113.611 215.9 114.856 215.498 115.9 214.672C115.925 214.653 115.948 214.634 115.974 214.612V216.408L108.7 231.075C107.311 233.878 108.463 237.271 111.273 238.655C112.083 239.055 112.941 239.244 113.785 239.244C115.877 239.244 117.891 238.086 118.879 236.09L125.248 223.246L127.258 222.09C127.146 224.078 127.239 226.049 127.667 227.831C128.293 230.425 130.618 232.17 133.184 232.17C133.622 232.17 134.068 232.12 134.513 232.012C137.563 231.282 139.442 228.228 138.71 225.188C138.158 222.903 139.163 218.185 140.288 214.591L144.157 212.366C144.601 212.954 144.982 213.657 145.197 214.489C145.862 217.039 148.164 218.73 150.69 218.73C151.162 218.73 151.64 218.67 152.119 218.546C155.153 217.763 156.978 214.674 156.19 211.65C155.703 209.777 154.937 208.131 154.013 206.695L155.405 205.894C157.646 207.355 160.322 208.903 162.867 209.87C163.531 210.121 164.215 210.241 164.887 210.241C167.174 210.241 169.332 208.853 170.193 206.596C171.311 203.676 169.839 200.406 166.909 199.292C166.903 199.29 166.895 199.288 166.889 199.285L178.248 192.749L178.685 195.374C179.148 198.142 181.554 200.103 184.278 200.103C184.588 200.103 184.904 200.076 185.22 200.024C188.312 199.51 190.402 196.596 189.887 193.511L188.748 186.705L194.573 183.354C194.794 184.659 194.839 185.713 194.641 186.281C192.662 188.58 192.85 192.048 195.102 194.121C196.194 195.125 197.575 195.621 198.952 195.621C200.482 195.621 202.006 195.009 203.126 193.801C207.059 189.552 206.408 182.853 204.888 177.419L208.122 175.558L212.015 180.168C213.138 181.497 214.743 182.181 216.36 182.181C217.652 182.181 218.952 181.745 220.015 180.851C222.414 178.838 222.72 175.269 220.702 172.877L216.359 167.735V167.067L217.546 167.706C218.404 168.169 219.329 168.387 220.241 168.387C222.259 168.387 224.213 167.312 225.24 165.419C226.731 162.67 225.705 159.236 222.945 157.75L216.359 154.202V150.585L216.434 150.652C217.521 151.635 218.884 152.119 220.243 152.119C221.791 152.119 223.332 151.492 224.454 150.259C226.559 147.942 226.383 144.364 224.059 142.266L216.359 135.313V121.911L220.948 124.013C221.717 124.367 222.523 124.533 223.317 124.533C225.465 124.533 227.521 123.311 228.478 121.238C229.789 118.396 228.542 115.038 225.693 113.731V113.731Z" fill="#F8DB8F"/>
<path d="M178.723 124.73C177.183 124.73 175.768 123.716 175.324 122.162C174.768 120.317 168.188 115.445 161.519 111.944C159.789 111.037 159.123 108.898 160.031 107.168C160.938 105.439 163.076 104.773 164.806 105.68C168.439 107.587 180.425 114.274 182.124 120.219C182.661 122.097 181.574 124.054 179.696 124.591C179.372 124.685 179.043 124.73 178.723 124.73V124.73Z" fill="#F7BD69"/>
<path d="M215.324 85.9957C210.687 85.9957 206.647 85.2834 206.393 85.2371C204.47 84.8916 203.19 83.0521 203.538 81.1295C203.883 79.207 205.719 77.9273 207.643 78.2747C209.896 78.6762 216.683 79.4715 220.97 78.3365C222.856 77.8365 224.794 78.9619 225.294 80.8516C225.794 82.7394 224.668 84.6754 222.778 85.1753C220.449 85.793 217.802 85.9957 215.324 85.9957V85.9957Z" fill="#F7BD69"/>
<path d="M202.071 112.349C200.926 112.349 199.807 111.797 199.125 110.774C196.52 106.867 192.532 102.864 192.493 102.825C191.111 101.443 191.111 99.2042 192.493 97.8221C193.875 96.442 196.112 96.442 197.494 97.8221C197.678 98.0055 202.021 102.366 205.009 106.85C206.094 108.475 205.653 110.672 204.028 111.755C203.426 112.158 202.745 112.349 202.071 112.349V112.349Z" fill="#F7BD69"/>
<path d="M223.529 127.231C218.254 127.231 209.589 124.886 208.554 124.6C206.671 124.081 205.565 122.133 206.086 120.251C206.603 118.369 208.549 117.262 210.435 117.781C214.173 118.812 221.18 120.361 224.077 120.141C226.029 119.993 227.726 121.448 227.874 123.396C228.025 125.343 226.567 127.044 224.62 127.195C224.276 127.22 223.913 127.231 223.529 127.231V127.231Z" fill="#F7BD69"/>
</g>
<defs>
<clipPath id="clip0">
<rect width="229" height="129" fill="white"/>
</clipPath>
</defs>
</svg>
