<svg width="229" height="85" viewBox="0 0 229 85" fill="none" xmlns="http://www.w3.org/2000/svg">
<g clip-path="url(#clip0)">
<path d="M115.974 -154L15.5887 -96.236V-87.1851C12.6838 -88.3259 9.63359 -89.0748 6.70348 -89.0015C3.57003 -88.9146 1.09889 -86.3127 1.18604 -83.1876C1.27319 -80.0645 3.907 -77.6093 7.01915 -77.6884C9.28887 -77.754 12.4824 -76.4202 15.5887 -74.6367V-71.9112C12.4359 -71.751 9.27726 -71.2723 6.54081 -70.2589C3.60101 -69.1703 2.104 -65.914 3.19432 -62.9839C4.0445 -60.7024 6.21352 -59.2933 8.5181 -59.2933C9.17461 -59.2933 9.84275 -59.4072 10.4954 -59.6485C11.8762 -60.16 13.6502 -60.4418 15.5887 -60.5673V-57.2048L8.17144 -53.1841C5.41563 -51.6901 4.3989 -48.2543 5.89591 -45.5095C6.92619 -43.6218 8.87444 -42.5524 10.8885 -42.5524C11.8045 -42.5524 12.7341 -42.7744 13.5959 -43.2415L15.5887 -44.3224V-40.7245L15.4764 -40.7824C12.7051 -42.2475 9.26951 -41.1974 7.79961 -38.4352C6.35489 -35.7213 7.35419 -32.3685 10.0209 -30.8649C8.29926 -30.1198 6.3975 -29.4442 4.36404 -28.9598C1.31192 -28.2359 -0.570475 -25.1842 0.155759 -22.1441C0.775478 -19.546 3.10524 -17.7953 5.6732 -17.7953C6.10894 -17.7953 6.55049 -17.8455 6.99204 -17.9517C10.1487 -18.7006 13.0459 -19.7796 15.5868 -20.9493V-18.7488C12.4243 -16.0755 8.68852 -12.9099 7.1431 -11.5626C4.78429 -9.50498 4.54415 -5.93019 6.60859 -3.57724C7.73183 -2.29943 9.30437 -1.64508 10.8847 -1.64508C12.2112 -1.64508 13.5436 -2.10641 14.6204 -3.04643C14.8799 -3.27227 15.2072 -3.55409 15.5868 -3.88029V1.34291C12.1725 2.38137 8.76018 3.31175 7.68341 3.42563C4.60418 3.49126 2.12918 5.99862 2.12918 9.08119C2.12918 12.2082 4.67196 14.7406 7.80736 14.7406C8.57039 14.7406 9.64909 14.5824 10.9098 14.3218C9.31405 15.3409 7.8519 16.4894 6.68218 17.773C4.57126 20.0854 4.74362 23.6641 7.06369 25.7661C8.15014 26.7524 9.5174 27.2369 10.8808 27.2369C12.4243 27.2369 13.9639 26.6135 15.0833 25.3839C16.5183 23.8127 19.6595 22.2512 22.8975 21.0235L23.5695 21.4096C21.904 22.1238 20.3644 22.9982 19.0746 24.0694C16.6655 26.0691 16.3421 29.6381 18.3484 32.0393C19.4716 33.3828 21.0868 34.0757 22.7135 34.0738C23.9956 34.0738 25.2834 33.6453 26.3447 32.7632C28.3549 31.0935 33.516 30.1361 38.0942 29.7675L39.1477 30.3736C38.4118 30.5531 37.6585 30.7326 36.8703 30.9044C33.8065 31.5742 31.8699 34.593 32.5419 37.6447C33.1248 40.2891 35.474 42.092 38.0826 42.092C38.4854 42.092 38.894 42.0495 39.3046 41.9588C45.0506 40.7022 49.6404 39.2043 52.5995 38.1138L56.6955 40.4725C54.6097 41.5921 52.5608 42.7888 50.7539 44.0087C48.1569 45.7613 47.4771 49.2801 49.2356 51.8667C50.3337 53.4823 52.1212 54.3528 53.9416 54.3528C55.0377 54.3528 56.1455 54.0362 57.1215 53.378C60.406 51.1602 64.8254 48.9501 68.4992 47.2631L71.9774 49.2647L69.971 50.7375C67.4457 52.5905 66.9034 56.1325 68.7626 58.6495C69.8742 60.1551 71.5959 60.9542 73.3408 60.9542C74.5085 60.9542 75.6879 60.5952 76.7008 59.852L82.714 55.4434L83.9709 56.1653L80.8936 61.7745C79.3869 64.5154 80.3978 67.9551 83.1498 69.4549C84.0135 69.9259 84.9469 70.1498 85.8688 70.1498C87.8771 70.1498 89.8234 69.0862 90.8556 67.2062L93.807 61.8266L97.7209 64.0773C97.8468 67.2737 97.5273 70.2598 96.8359 71.1709C94.9477 73.6647 95.4454 77.2144 97.9475 79.0964C98.972 79.8666 100.173 80.241 101.364 80.241C103.083 80.241 104.784 79.4631 105.899 77.9904C107.487 75.8941 108.341 73.1841 108.762 70.4316L115.972 74.5816L216.357 16.8156V-96.236L115.974 -154Z" fill="#F7BD69"/>
<path d="M225.693 -40.269L216.359 -44.5464V-45.4169C218.574 -45.7238 221.132 -46.0809 224.115 -46.4998C227.219 -46.9379 229.38 -49.8005 228.943 -52.8946C228.505 -55.9907 225.625 -58.1448 222.527 -57.7067C220.495 -57.421 218.402 -57.1276 216.359 -56.8458V-65.5859L224.804 -67.8616C227.831 -68.6781 229.621 -71.7858 228.801 -74.8027C227.982 -77.8197 224.862 -79.6032 221.839 -78.7867L216.359 -77.3101V-79.9198C218.475 -82.7726 221.876 -86.6601 226.297 -89.3721C228.968 -91.0109 229.801 -94.4949 228.156 -97.1567C226.512 -99.8185 223.017 -100.648 220.344 -99.0117C218.93 -98.143 217.602 -97.1934 216.359 -96.2051V-96.2341L115.974 -38.4681V-19.3781L106.141 -12.0799C103.626 -10.2134 103.105 -6.66756 104.978 -4.1602C106.093 -2.67006 107.803 -1.8806 109.536 -1.8806C110.716 -1.8806 111.905 -2.24541 112.923 -3.00206L115.974 -5.26622V-0.705087C111.589 3.74216 105.696 9.48459 103.792 10.8126C101.224 12.6058 100.599 16.1342 102.398 18.6937C103.502 20.2669 105.262 21.1084 107.054 21.1084C108.177 21.1084 109.314 20.7764 110.303 20.0854C110.723 19.792 111.217 19.4079 111.762 18.9582C110.199 21.7917 108.217 25.824 106.934 30.0917C106.033 33.0855 107.735 36.2395 110.739 37.139C111.283 37.3011 111.833 37.3783 112.373 37.3783C113.704 37.3783 114.969 36.8958 115.974 36.0716V42.6614C115.474 43.9816 113.654 48.0004 108.841 51.8068C106.385 53.7505 105.975 57.3099 107.923 59.7574C109.044 61.1665 110.702 61.9 112.375 61.9C113.611 61.9 114.856 61.4985 115.9 60.6723C115.925 60.653 115.948 60.6337 115.974 60.6125V62.4076L108.7 77.0754C107.311 79.8781 108.463 83.2715 111.273 84.6554C112.083 85.055 112.941 85.2442 113.785 85.2442C115.877 85.2442 117.891 84.086 118.879 82.0902L125.248 69.2464L127.258 68.0902C127.146 70.0783 127.239 72.0491 127.667 73.8307C128.293 76.4249 130.618 78.1699 133.184 78.1699C133.622 78.1699 134.068 78.1197 134.513 78.0116C137.563 77.282 139.442 74.2283 138.71 71.1882C138.158 68.9028 139.163 64.1854 140.288 60.5913L144.157 58.3657C144.601 58.9544 144.982 59.657 145.197 60.489C145.862 63.0388 148.164 64.7297 150.69 64.7297C151.162 64.7297 151.64 64.6698 152.119 64.5463C155.153 63.7626 156.978 60.6743 156.19 57.6496C155.703 55.7773 154.937 54.1308 154.013 52.6947L155.405 51.8937C157.646 53.3548 160.322 54.9029 162.867 55.8699C163.531 56.1209 164.215 56.2405 164.887 56.2405C167.174 56.2405 169.332 54.8527 170.193 52.5963C171.311 49.6758 169.839 46.406 166.909 45.2923C166.903 45.2903 166.895 45.2884 166.889 45.2845L178.248 38.7488L178.685 41.3739C179.148 44.1419 181.554 46.103 184.278 46.103C184.588 46.103 184.904 46.0759 185.22 46.0238C188.312 45.5104 190.402 42.5957 189.887 39.5112L188.748 32.7052L194.573 29.3544C194.794 30.6592 194.839 31.7131 194.641 32.2806C192.662 34.5795 192.85 38.0481 195.102 40.1212C196.194 41.1249 197.575 41.621 198.952 41.621C200.482 41.621 202.006 41.0091 203.126 39.8008C207.059 35.5523 206.408 28.8525 204.888 23.4189L208.122 21.5582L212.015 26.1676C213.138 27.4975 214.743 28.1808 216.36 28.1808C217.652 28.1808 218.952 27.7446 220.015 26.8509C222.414 24.8376 222.72 21.2686 220.702 18.8771L216.359 13.735V13.0671L217.546 13.706C218.404 14.1693 219.329 14.3874 220.241 14.3874C222.259 14.3874 224.213 13.3122 225.24 11.4187C226.731 8.67004 225.705 5.23616 222.945 3.74988L216.359 0.202121V-3.41513L216.434 -3.34757C217.521 -2.36508 218.884 -1.8806 220.243 -1.8806C221.791 -1.8806 223.332 -2.50792 224.454 -3.74134C226.559 -6.05761 226.383 -9.63626 224.059 -11.7344L216.359 -18.6871V-32.0887L220.948 -29.9867C221.717 -29.6334 222.523 -29.4674 223.317 -29.4674C225.465 -29.4674 227.521 -30.6893 228.478 -32.7623C229.789 -35.6036 228.542 -38.9622 225.693 -40.269V-40.269Z" fill="#F8DB8F"/>
<path d="M69.8394 26.9143C69.4553 26.9143 69.0635 26.8506 68.6774 26.7155C66.8321 26.0747 65.8573 24.0576 66.5001 22.2142C69.8066 12.7058 80.0523 8.27787 80.4866 8.09257C82.2875 7.33205 84.3606 8.17364 85.123 9.97262C85.8835 11.7677 85.0458 13.8389 83.2526 14.6033C83.1194 14.6612 75.4352 18.0545 73.1807 24.5382C72.673 25.9974 71.3045 26.9143 69.8394 26.9143Z" fill="#F8DB8F"/>
<path d="M87.5242 55.2075C86.092 55.2075 84.7447 54.3312 84.2119 52.9125C83.5267 51.0826 84.4532 49.0443 86.2811 48.3591C92.7532 45.9308 94.255 39.2136 94.3167 38.9299C94.7221 37.0266 96.5886 35.7971 98.4938 36.1928C100.399 36.5866 101.628 38.4319 101.248 40.3389C101.161 40.7771 98.9763 51.1521 88.7654 54.9817C88.3562 55.1361 87.9373 55.2075 87.5242 55.2075Z" fill="#F8DB8F"/>
<path d="M29.876 23.023C28.5596 23.023 27.2934 22.2837 26.6853 21.0175C25.8399 19.2552 26.5811 17.1435 28.3434 16.2961C37.8112 11.7504 38.6316 5.2822 38.6625 5.0081C38.813 3.0605 40.5136 1.63405 42.4592 1.78461C44.4068 1.93517 45.8603 3.66466 45.7098 5.61227C45.6769 6.04464 44.735 16.271 31.4048 22.6736C30.9126 22.911 30.3895 23.023 29.876 23.023V23.023Z" fill="#F8DB8F"/>
<path d="M150.625 19.8611C150.306 19.8611 149.984 19.8186 149.663 19.7279C139.149 16.7611 134.613 8.56725 134.426 8.21981C133.498 6.5019 134.137 4.35548 135.855 3.42703C137.567 2.50052 139.703 3.13171 140.638 4.83611C140.794 5.11599 144.064 10.7986 151.582 12.918C153.462 13.4488 154.557 15.4022 154.028 17.2823C153.588 18.8419 152.169 19.8611 150.625 19.8611Z" fill="#F7BD69"/>
<path d="M209.014 24.791C208.414 24.791 207.804 24.6385 207.246 24.3142C199.267 19.6933 197.161 10.3741 197.074 9.98031C196.659 8.07131 197.871 6.1874 199.78 5.7724C201.683 5.3574 203.563 6.5638 203.984 8.46315C204.017 8.60985 205.588 15.1804 210.79 18.1935C212.481 19.1721 213.058 21.3359 212.08 23.0268C211.423 24.1579 210.236 24.791 209.014 24.791V24.791Z" fill="#F7BD69"/>
<path d="M180.727 26.9142C179.37 26.9142 178.079 26.1305 177.492 24.8122C175.376 20.0503 169.858 13.7114 167.908 11.6711C166.561 10.2582 166.613 8.0191 168.026 6.66987C169.439 5.32063 171.678 5.37275 173.025 6.78761C173.346 7.12154 180.912 15.0915 183.956 21.94C184.749 23.7235 183.946 25.814 182.161 26.6073C181.694 26.8158 181.206 26.9142 180.727 26.9142V26.9142Z" fill="#F7BD69"/>
<path d="M136.868 35.0483C135.388 35.0483 134.008 34.1102 133.513 32.6297C132.236 28.7962 128.037 26.5398 127.995 26.5186C126.26 25.6229 125.578 23.49 126.476 21.7528C127.369 20.0175 129.504 19.3362 131.24 20.2337C131.933 20.5908 138.063 23.9089 140.223 30.3925C140.841 32.2456 139.839 34.2472 137.986 34.8649C137.615 34.9904 137.239 35.0483 136.868 35.0483V35.0483Z" fill="#F7BD69"/>
<path d="M146.417 70.0626C146.004 70.0626 145.585 69.9892 145.176 69.8367C138.605 67.3718 134.2 61.4402 134.015 61.1893C132.861 59.6142 133.201 57.4002 134.776 56.2459C136.347 55.0916 138.557 55.4294 139.713 56.9987C139.771 57.074 143.112 61.5078 147.658 63.2122C149.488 63.8993 150.414 65.9376 149.729 67.7656C149.196 69.1862 147.849 70.0626 146.417 70.0626Z" fill="#F7BD69"/>
<path d="M172.946 55.2075C171.73 55.2075 170.545 54.5783 169.889 53.453C168.42 50.934 162.861 47.5754 160.398 46.3458C158.651 45.4714 157.942 43.3463 158.817 41.5994C159.689 39.8525 161.814 39.1441 163.561 40.0185C164.526 40.5011 173.075 44.8789 175.998 49.8878C176.982 51.5748 176.413 53.7406 174.726 54.725C174.164 55.0512 173.552 55.2075 172.946 55.2075V55.2075Z" fill="#F7BD69"/>
<path d="M201.405 40.5683C195.661 40.5683 189.432 36.9916 188.739 36.5823C187.058 35.5902 186.498 33.4225 187.492 31.7394C188.484 30.0581 190.65 29.5003 192.331 30.4886C193.76 31.3263 198.17 33.494 201.405 33.494H201.432C203.382 33.494 204.963 35.0729 204.969 37.0224C204.974 38.9758 203.393 40.5625 201.44 40.5683C201.428 40.5683 201.417 40.5683 201.405 40.5683V40.5683Z" fill="#F7BD69"/>
</g>
</svg>
