<svg width="216" height="144" viewBox="0 0 216 144" fill="none" xmlns="http://www.w3.org/2000/svg">
<g clip-path="url(#clip0)">
<path d="M215.703 63.3501C214.945 60.3177 211.874 58.4744 208.841 59.233C204.313 60.366 198.167 60.8408 193.845 61.0416L187.321 57.2738L193.22 54.168C195.986 52.7146 197.048 49.2923 195.592 46.5263C194.137 43.7602 190.717 42.6967 187.949 44.154L175.734 50.5836L170.688 47.6709L173.321 46.6691C176.244 45.5573 177.711 42.2894 176.599 39.369C175.487 36.4466 172.219 34.9777 169.297 36.0914L158.045 40.3708L149.938 35.6919C152.695 34.7422 155.476 34.1342 157.833 34.2925C160.943 34.5048 163.653 32.1557 163.869 29.0364C164.083 25.9191 161.73 23.2168 158.611 23.0025C151.301 22.4968 143.241 25.8014 137.761 28.662L133.462 26.1778L137.57 16.988C138.845 14.1351 137.568 10.7881 134.715 9.51218C131.862 8.2363 128.515 9.51604 127.239 12.3689L123.608 20.4894L121.794 19.4432V5.65944C121.794 2.5344 119.261 7.62939e-06 116.136 7.62939e-06C113.009 7.62939e-06 110.477 2.5344 110.477 5.65944V14.6041L107.651 16.2352L109.189 13.1063C110.568 10.3016 109.411 6.91023 106.607 5.53204C103.802 4.15193 100.411 5.31007 99.0326 8.11469L90.0435 26.4017L88.1963 27.4691V21.5742C88.1963 18.4491 85.6619 15.9147 82.5368 15.9147C79.4118 15.9147 76.8774 18.4491 76.8774 21.5742V34.0029L67.5795 39.3709V37.1357C67.5795 34.0106 65.0451 31.4763 61.92 31.4763C58.795 31.4763 56.2606 34.0106 56.2606 37.1357V42.0057L49.4469 33.5783C47.4819 31.1481 43.9187 30.7698 41.4886 32.7348C39.0584 34.7017 38.682 38.2629 40.647 40.695L46.7832 48.2847C42.1661 46.7926 35.9565 45.2697 29.8396 45.2697C26.7127 45.2697 24.1802 47.8041 24.1802 50.9291C24.1802 54.0541 26.7127 56.5885 29.8396 56.5885C32.0652 56.5885 34.3525 56.8684 36.5452 57.2892L24.7129 64.1203L5.96463 65.8884C2.8531 66.1818 0.569638 68.942 0.863033 72.0535C1.13906 74.9836 3.60396 77.1822 6.48965 77.1822C6.66723 77.1822 6.84674 77.1725 7.02625 77.1571L19.5978 75.97L20.0592 76.2363L15.3706 78.902C12.6529 80.4481 11.7032 83.9032 13.2474 86.619C14.2916 88.4528 16.2045 89.4816 18.1714 89.4816C19.1211 89.4816 20.0804 89.2422 20.9644 88.7404L31.4186 82.7953L36.0086 85.4455L31.9803 87.0572C29.0791 88.2173 27.6662 91.5102 28.8282 94.4114C29.7122 96.6254 31.8374 97.9707 34.0842 97.9707C34.7829 97.9707 35.4952 97.8414 36.1843 97.5654L48.4799 92.6472L54.5099 96.1274L52.4272 103.939C51.6223 106.958 53.4174 110.06 56.4382 110.865C56.9265 110.994 57.4168 111.056 57.8994 111.056C60.401 111.056 62.6883 109.386 63.3639 106.854L64.661 101.989L70.6775 105.462L69.7066 116.453C69.4325 119.566 71.7333 122.313 74.8468 122.587C75.0147 122.602 75.1826 122.61 75.3506 122.61C78.2498 122.61 80.7205 120.39 80.9811 117.447L81.4887 111.704L93.5816 118.686L90.8021 126.027C89.6941 128.951 91.1669 132.217 94.0892 133.323C94.7494 133.574 95.425 133.692 96.0928 133.692C98.3763 133.692 100.528 132.298 101.386 130.036L103.513 124.419L109.475 127.862L112.291 139.289C112.928 141.868 115.239 143.594 117.781 143.594C118.231 143.594 118.686 143.54 119.14 143.43C122.176 142.681 124.029 139.613 123.28 136.579L120.296 124.467L122.402 123.251L126.042 131.559C126.973 133.682 129.05 134.948 131.229 134.948C131.987 134.948 132.758 134.794 133.497 134.471C136.359 133.217 137.664 129.879 136.41 127.017L132.265 117.557L137.297 114.652L136.676 121.124C136.377 124.235 138.656 126.999 141.766 127.299C141.951 127.316 142.133 127.324 142.314 127.324C145.196 127.324 147.659 125.133 147.941 122.207L149.002 111.168L153.645 117.563C154.751 119.087 156.478 119.898 158.229 119.898C159.381 119.898 160.543 119.547 161.547 118.817C164.077 116.982 164.639 113.443 162.803 110.915L157.183 103.171L158.248 102.555L167.453 111.129C168.544 112.144 169.928 112.646 171.308 112.646C172.825 112.646 174.337 112.042 175.45 110.845C177.581 108.558 177.454 104.977 175.167 102.848L168.5 96.6369L169.895 95.832L182.779 105.45C183.795 106.209 184.984 106.576 186.159 106.576C187.885 106.576 189.587 105.79 190.699 104.302C192.57 101.798 192.054 98.2525 189.551 96.3821L180.563 89.6727L182.965 88.2868C186.302 90.2846 189.865 92.8672 191.817 95.6004C192.921 97.1465 194.66 97.9707 196.426 97.9707C197.563 97.9707 198.713 97.6271 199.709 96.9149C202.253 95.0985 202.842 91.5643 201.026 89.0222C199.831 87.3506 198.37 85.7929 196.783 84.3645L206.909 85.2177C207.071 85.2312 207.232 85.237 207.392 85.237C210.301 85.237 212.775 83.0057 213.024 80.0524C213.287 76.9389 210.974 74.2019 207.861 73.9394L207.82 73.9355L212.001 71.5227L210.264 70.5209C210.714 70.4225 211.156 70.3221 211.588 70.214C214.619 69.4554 216.462 66.3825 215.703 63.3501V63.3501Z" fill="#FFF5AE"/>
<path d="M62.1442 77.1033C61.9377 77.1033 61.7292 77.084 61.5188 77.0474C54.1897 75.7387 46.3394 69.2202 45.4689 68.481C43.9807 67.2167 43.7973 64.9853 45.0616 63.4952C46.324 62.0069 48.5573 61.8236 50.0455 63.0879C52.0182 64.7556 58.1428 69.2588 62.7619 70.0831C64.6844 70.4266 65.9661 72.2642 65.6225 74.1867C65.3175 75.8989 63.8254 77.1033 62.1442 77.1033Z" fill="#F8DB8F"/>
<path d="M135.939 53.0526C134.092 53.0526 132.538 51.6203 132.413 49.7499C131.864 41.5078 124.244 38.0469 123.92 37.9041C122.142 37.1165 121.321 35.0377 122.099 33.2541C122.875 31.4687 124.937 30.6445 126.726 31.4108C127.211 31.6173 138.63 36.6533 139.471 49.2809C139.601 51.2285 138.126 52.9155 136.179 53.0448C136.097 53.0487 136.018 53.0526 135.939 53.0526V53.0526Z" fill="#F8DB8F"/>
<path d="M127.083 73.2081C126.313 73.2081 125.539 72.9553 124.89 72.436C123.016 70.9362 115.67 62.5127 113.463 59.9667C112.184 58.4901 112.344 56.2568 113.82 54.977C115.295 53.6992 117.53 53.8575 118.808 55.3341C123.091 60.2755 128.326 66.1087 129.311 66.9155C130.818 68.147 131.061 70.3745 129.838 71.8878C129.137 72.7545 128.114 73.2081 127.083 73.2081Z" fill="#F8DB8F"/>
<path d="M167.067 90.8965C165.706 90.8965 164.411 90.107 163.828 88.7829C163.041 86.9955 163.853 84.907 165.641 84.1214C172.7 81.0156 174.931 72.789 174.952 72.7079C175.425 70.8124 177.348 69.6601 179.241 70.1349C181.137 70.6078 182.287 72.5284 181.814 74.4239C181.697 74.8968 178.799 86.0593 168.49 90.5954C168.027 90.8 167.542 90.8965 167.067 90.8965Z" fill="#F8DB8F"/>
<path d="M86.7818 64.3695C84.8284 64.3695 83.2437 62.7867 83.2437 60.8333C83.2437 54.1779 89.293 41.8861 89.984 40.506C90.8565 38.7591 92.9817 38.0507 94.7266 38.9251C96.4735 39.7976 97.1838 41.9228 96.3094 43.6697C93.9931 48.308 90.316 57.0694 90.316 60.8333C90.318 62.7867 88.7332 64.3695 86.7818 64.3695Z" fill="#F8DB8F"/>
<path d="M114.373 99.384C114.278 99.384 114.183 99.3802 114.089 99.3725C99.807 98.2452 95.3385 93.3212 94.5876 92.3445L100.195 88.0323C100.195 88.0323 100.168 87.9918 100.106 87.9223C100.137 87.959 103.413 91.4334 114.647 92.3213C116.594 92.4757 118.048 94.1782 117.893 96.1258C117.747 97.9788 116.199 99.384 114.373 99.384Z" fill="#F8DB8F"/>
<path d="M121.62 120.252C120.54 120.252 119.474 119.76 118.781 118.825C117.613 117.26 117.939 115.044 119.507 113.876C126.203 108.892 129.77 99.6369 129.805 99.5443C130.498 97.7183 132.54 96.7995 134.368 97.4924C136.192 98.1854 137.113 100.228 136.42 102.054C136.246 102.511 132.067 113.347 123.728 119.553C123.095 120.024 122.354 120.252 121.62 120.252V120.252Z" fill="#F8DB8F"/>
</g>
<defs>
<clipPath id="clip0">
<rect width="215.036" height="143.594" fill="white" transform="translate(0.837646)"/>
</clipPath>
</defs>
</svg>
